<svg width="232" height="140" viewBox="0 0 232 140" fill="none" xmlns="http://www.w3.org/2000/svg">
<ellipse cx="116" cy="95.2175" rx="116" ry="44.5" fill="#FFF5CC"/>
<ellipse cx="116" cy="95.2175" rx="99" ry="33.5" fill="#FFEB99"/>
<ellipse cx="116" cy="95.2175" rx="82" ry="23.5" fill="#FFCC00"/>
<path fill-rule="evenodd" clip-rule="evenodd" d="M165.996 103.338L148.791 43.2038C147.834 38.7887 146.057 34.5946 143.551 30.84L143.547 30.8339C139.15 24.2679 133.222 18.8766 126.272 15.1242C119.323 11.3727 111.562 9.37264 103.657 9.2939C95.7765 9.19468 87.9831 11.0095 80.9429 14.5805C73.9003 18.1527 67.82 23.3763 63.2215 29.8034C58.6229 36.2305 55.6417 43.6715 54.5342 51.4902C53.427 59.3064 54.2252 67.2685 56.863 74.6951C59.4836 82.1417 63.8722 88.8339 69.6539 94.1961C75.4377 99.5602 82.4411 103.432 90.0623 105.479L90.0908 105.486L90.1193 105.494C94.4997 106.615 99.0471 106.943 103.547 106.463L165.996 103.338ZM100.999 31.9973C87.1923 31.9973 75.9994 43.1902 75.9994 56.9973C75.9994 70.8044 87.1923 81.9973 100.999 81.9973C114.807 81.9973 125.999 70.8044 125.999 56.9973C125.999 43.1902 114.807 31.9973 100.999 31.9973Z" fill="white"/>
<path fill-rule="evenodd" clip-rule="evenodd" d="M103.201 101.477C103.185 101.478 103.169 101.48 103.152 101.481C103.122 101.484 103.09 101.486 103.059 101.49C99.1372 101.913 95.175 101.629 91.3599 100.653C84.5234 98.8163 78.2419 95.3438 73.0546 90.5328C67.8673 85.7218 63.929 79.7162 61.5777 73.0312C59.2088 66.3652 58.4908 59.2154 59.4854 52.1941C60.4799 45.1728 63.1574 38.4892 67.2884 32.7155C71.4194 26.9418 76.881 22.2502 83.2053 19.0424C89.5297 15.8345 96.5285 14.206 103.602 14.2963C110.698 14.3661 117.663 16.1609 123.897 19.5266C130.131 22.8923 135.449 27.7281 139.393 33.6184C141.57 36.8801 143.108 40.5283 143.928 44.3701C143.938 44.4176 143.951 44.4643 143.964 44.5107L159.457 98.6619L103.201 101.477ZM148.792 43.2065L165.997 103.341L103.548 106.466C99.0477 106.946 94.5003 106.618 90.1199 105.496L90.0914 105.489L90.063 105.481C82.4418 103.434 75.4383 99.5629 69.6546 94.1988C63.8728 88.8366 59.4842 82.1444 56.8636 74.6978C54.2258 67.2712 53.4276 59.309 54.5348 51.4929C55.6423 43.6742 58.6235 36.2332 63.2221 29.8061C67.8206 23.3789 73.9009 18.1553 80.9435 14.5832C87.9837 11.0122 95.7772 9.19736 103.658 9.29658C111.563 9.37532 119.323 11.3754 126.272 15.1268C133.223 18.8793 139.151 24.2706 143.547 30.8366L143.551 30.8427C146.057 34.5973 147.834 38.7913 148.792 43.2065Z" fill="#C9C9C9"/>
<path fill-rule="evenodd" clip-rule="evenodd" d="M101 38C90.5066 38 82 46.5066 82 57C82 67.4934 90.5066 76 101 76C111.493 76 120 67.4934 120 57C120 46.5066 111.493 38 101 38ZM76 57C76 43.1929 87.1929 32 101 32C114.807 32 126 43.1929 126 57C126 70.8071 114.807 82 101 82C87.1929 82 76 70.8071 76 57Z" fill="#C9C9C9"/>
<path d="M44.7072 30.1875C44.5493 30.0832 44.4174 29.9571 44.3114 29.8092C44.2054 29.6613 44.1368 29.4898 44.1057 29.2947C44.0746 29.0995 44.0864 28.9152 44.1411 28.7417C44.2055 28.5549 44.288 28.371 44.3886 28.1902L47.3302 23.1658L43.5423 23.77C43.4703 23.6873 43.3994 23.575 43.3297 23.4331C43.2581 23.2798 43.2086 23.117 43.1812 22.9448C43.1336 22.6464 43.1676 22.4173 43.2834 22.2576C43.3992 22.0979 43.5719 21.9997 43.8014 21.9631L49.2767 21.0898C49.4346 21.1941 49.5665 21.3201 49.6725 21.468C49.7784 21.6159 49.8479 21.7932 49.8809 21.9998C49.9102 22.1834 49.8926 22.3687 49.8283 22.5555C49.7735 22.729 49.6959 22.9062 49.5952 23.087L46.6736 28.1259L50.6853 27.486C50.7574 27.5687 50.8282 27.6809 50.898 27.8228C50.9677 27.9647 51.0163 28.1218 51.0437 28.294C51.0913 28.5924 51.0572 28.8215 50.9415 28.9812C50.8257 29.1409 50.653 29.2391 50.4235 29.2757L44.7072 30.1875Z" fill="#C9C9C9"/>
<path d="M57.8674 13.3543C57.757 13.2134 57.6764 13.0607 57.6257 12.8962C57.5749 12.7317 57.5649 12.5573 57.5955 12.3728C57.6261 12.1884 57.6919 12.0265 57.7931 11.8873C57.9069 11.7389 58.036 11.5987 58.1806 11.4667L62.3269 7.84064L58.7469 7.24668C58.7071 7.15089 58.6772 7.02888 58.6572 6.88065C58.639 6.72157 58.6434 6.56067 58.6704 6.39794C58.7172 6.11588 58.8165 5.92056 58.9682 5.81197C59.12 5.70339 59.3044 5.66709 59.5214 5.70309L64.6961 6.56164C64.8065 6.70257 64.8871 6.85528 64.9378 7.01975C64.9885 7.18423 64.9977 7.36411 64.9653 7.55938C64.9365 7.73296 64.8652 7.89391 64.7514 8.04224C64.6503 8.18152 64.5275 8.3172 64.3829 8.44928L60.2501 12.0943L64.0417 12.7233C64.0815 12.8191 64.1114 12.9411 64.1314 13.0894C64.1514 13.2376 64.1479 13.3931 64.1209 13.5558C64.0741 13.8379 63.9748 14.0332 63.8231 14.1418C63.6713 14.2503 63.4869 14.2866 63.2699 14.2506L57.8674 13.3543Z" fill="#C9C9C9"/>
<path d="M39.3896 12.5346C39.1706 12.4459 38.9779 12.3241 38.8116 12.1693C38.6453 12.0144 38.5189 11.8214 38.4326 11.5901C38.3463 11.3589 38.3152 11.1303 38.3393 10.9044C38.3719 10.6597 38.4275 10.4143 38.506 10.168L40.8658 3.28941L36.3774 4.9653C36.2688 4.88188 36.1542 4.76193 36.0338 4.60543C35.9083 4.43532 35.8075 4.24827 35.7313 4.04425C35.5993 3.69062 35.5844 3.40173 35.6867 3.17758C35.7889 2.95342 35.9761 2.79056 36.2481 2.68899L42.7358 0.266565C42.9549 0.355235 43.1476 0.477004 43.3139 0.63187C43.4802 0.786735 43.609 0.986578 43.7005 1.2314C43.7817 1.44902 43.806 1.68015 43.7734 1.92479C43.7493 2.15075 43.698 2.38688 43.6195 2.63315L41.2877 9.52451L46.0413 7.74959C46.1499 7.833 46.2644 7.95296 46.3849 8.10946C46.5053 8.26596 46.6036 8.44622 46.6798 8.65024C46.8118 9.00386 46.8267 9.29276 46.7244 9.51691C46.6221 9.74107 46.435 9.90393 46.163 10.0055L39.3896 12.5346Z" fill="#C9C9C9"/>
<path d="M26.6991 26.1516C26.6047 25.9876 26.5432 25.8158 26.5147 25.6361C26.4862 25.4564 26.5017 25.2724 26.5613 25.0839C26.6208 24.8955 26.7139 24.736 26.8406 24.6054C26.9818 24.4672 27.1379 24.3398 27.3088 24.2232L32.1893 21.0484L28.5319 19.892C28.5045 19.7859 28.4915 19.6537 28.4927 19.4956C28.4974 19.3265 28.5261 19.1587 28.5786 18.9925C28.6697 18.7043 28.8028 18.5148 28.9778 18.4239C29.1529 18.3329 29.3512 18.3225 29.5729 18.3926L34.8594 20.064C34.9539 20.228 35.0153 20.3998 35.0439 20.5795C35.0724 20.7592 35.0551 20.9487 34.992 21.1482C34.936 21.3256 34.8373 21.4833 34.6961 21.6215C34.5695 21.7522 34.4207 21.8758 34.2497 21.9924L29.3806 25.1891L33.2541 26.4137C33.2815 26.5199 33.2946 26.652 33.2933 26.8101C33.2921 26.9682 33.2652 27.1304 33.2127 27.2966C33.1216 27.5848 32.9885 27.7743 32.8134 27.8653C32.6384 27.9562 32.4401 27.9667 32.2184 27.8966L26.6991 26.1516Z" fill="#C9C9C9"/>
</svg>
