<svg width="370" height="76" viewBox="0 0 370 76" fill="none" xmlns="http://www.w3.org/2000/svg">
<path d="M89.6806 58.9638V62.9628C89.6062 62.9876 89.507 63.0124 89.383 63.0372C89.259 63.0744 89.1226 63.093 88.9738 63.093C88.4282 63.093 88.1554 62.8636 88.1554 62.4048V52.5096C88.1554 52.3112 88.205 52.1624 88.3042 52.0632C88.4034 51.9516 88.5584 51.8648 88.7692 51.8028C89.1288 51.6912 89.5628 51.6106 90.0712 51.561C90.592 51.5114 91.0942 51.4866 91.5778 51.4866C93.1526 51.4866 94.2996 51.8214 95.0188 52.491C95.7504 53.1482 96.1162 54.041 96.1162 55.1694C96.1162 56.3226 95.7442 57.2464 95.0002 57.9408C94.2562 58.6228 93.1092 58.9638 91.5592 58.9638H89.6806ZM91.4662 57.699C92.4582 57.699 93.227 57.4944 93.7726 57.0852C94.3182 56.676 94.591 56.0436 94.591 55.188C94.591 54.3448 94.3244 53.731 93.7912 53.3466C93.2704 52.9498 92.5202 52.7514 91.5406 52.7514C91.2058 52.7514 90.871 52.77 90.5362 52.8072C90.2138 52.832 89.9224 52.8692 89.662 52.9188V57.699H91.4662ZM99.573 62.9628C99.511 62.9876 99.418 63.0124 99.294 63.0372C99.17 63.0744 99.0336 63.093 98.8848 63.093C98.3516 63.093 98.085 62.8698 98.085 62.4234V56.118C98.085 55.8328 98.1346 55.6096 98.2338 55.4484C98.3454 55.2748 98.5252 55.1074 98.7732 54.9462C99.0956 54.7354 99.5296 54.5556 100.075 54.4068C100.633 54.2456 101.259 54.165 101.954 54.165C102.946 54.165 103.442 54.413 103.442 54.909C103.442 55.033 103.423 55.1508 103.386 55.2624C103.349 55.3616 103.299 55.4484 103.237 55.5228C103.113 55.498 102.952 55.4732 102.754 55.4484C102.555 55.4236 102.357 55.4112 102.158 55.4112C101.588 55.4112 101.086 55.4732 100.652 55.5972C100.218 55.7088 99.8582 55.8452 99.573 56.0064V62.9628ZM112.985 58.7034C112.985 59.3978 112.886 60.024 112.687 60.582C112.489 61.14 112.204 61.6174 111.832 62.0142C111.472 62.411 111.032 62.7148 110.511 62.9256C109.99 63.1364 109.408 63.2418 108.763 63.2418C108.118 63.2418 107.535 63.1364 107.014 62.9256C106.494 62.7148 106.047 62.411 105.675 62.0142C105.303 61.6174 105.018 61.14 104.82 60.582C104.621 60.024 104.522 59.3978 104.522 58.7034C104.522 58.009 104.621 57.3828 104.82 56.8248C105.03 56.2668 105.322 55.7894 105.694 55.3926C106.066 54.9958 106.512 54.692 107.033 54.4812C107.554 54.2704 108.13 54.165 108.763 54.165C109.395 54.165 109.972 54.2704 110.493 54.4812C111.013 54.692 111.454 54.9958 111.813 55.3926C112.185 55.7894 112.47 56.2668 112.669 56.8248C112.88 57.3828 112.985 58.009 112.985 58.7034ZM108.763 55.3926C107.92 55.3926 107.256 55.684 106.773 56.2668C106.289 56.8496 106.047 57.6618 106.047 58.7034C106.047 59.7574 106.283 60.5758 106.754 61.1586C107.238 61.729 107.907 62.0142 108.763 62.0142C109.618 62.0142 110.282 61.7228 110.753 61.14C111.224 60.5572 111.46 59.745 111.46 58.7034C111.46 57.6618 111.218 56.8496 110.734 56.2668C110.263 55.684 109.606 55.3926 108.763 55.3926ZM118.225 63.2418C117.357 63.2418 116.65 63.0496 116.105 62.6652C115.572 62.2808 115.305 61.6422 115.305 60.7494V51.9144C115.367 51.8896 115.46 51.8648 115.584 51.84C115.72 51.8028 115.863 51.7842 116.012 51.7842C116.533 51.7842 116.793 52.0074 116.793 52.4538V54.5928H119.843C119.881 54.6548 119.918 54.7416 119.955 54.8532C119.992 54.9524 120.011 55.064 120.011 55.188C120.011 55.6096 119.825 55.8204 119.453 55.8204H116.793V60.6564C116.793 61.1524 116.929 61.5058 117.202 61.7166C117.487 61.915 117.884 62.0142 118.393 62.0142C118.603 62.0142 118.839 61.977 119.099 61.9026C119.36 61.8282 119.577 61.7414 119.75 61.6422C119.825 61.7166 119.893 61.8096 119.955 61.9212C120.017 62.0328 120.048 62.163 120.048 62.3118C120.048 62.5846 119.887 62.8078 119.564 62.9814C119.242 63.155 118.796 63.2418 118.225 63.2418ZM122.995 59.5776C123.329 61.202 124.396 62.0142 126.194 62.0142C126.715 62.0142 127.186 61.9274 127.607 61.7538C128.029 61.5802 128.364 61.3942 128.612 61.1958C128.909 61.3694 129.058 61.605 129.058 61.9026C129.058 62.0762 128.978 62.2436 128.816 62.4048C128.668 62.566 128.457 62.7086 128.184 62.8326C127.924 62.9566 127.614 63.0558 127.254 63.1302C126.907 63.2046 126.529 63.2418 126.119 63.2418C124.681 63.2418 123.54 62.8512 122.697 62.07C121.866 61.2888 121.451 60.148 121.451 58.6476C121.451 57.9408 121.55 57.3146 121.748 56.769C121.959 56.211 122.244 55.7398 122.604 55.3554C122.976 54.971 123.416 54.6796 123.925 54.4812C124.433 54.2704 124.985 54.165 125.58 54.165C126.138 54.165 126.653 54.258 127.124 54.444C127.595 54.63 127.998 54.8966 128.333 55.2438C128.68 55.5786 128.947 55.9816 129.133 56.4528C129.331 56.9116 129.43 57.42 129.43 57.978C129.43 58.2508 129.368 58.4492 129.244 58.5732C129.12 58.6848 128.947 58.753 128.723 58.7778L122.995 59.5776ZM125.561 55.374C124.805 55.374 124.179 55.6406 123.683 56.1738C123.187 56.6946 122.926 57.4448 122.902 58.4244L128.017 57.7176C127.955 57.0356 127.713 56.4776 127.291 56.0436C126.882 55.5972 126.305 55.374 125.561 55.374ZM135.56 55.4112C135.138 55.4112 134.748 55.4856 134.388 55.6344C134.029 55.7708 133.719 55.9816 133.458 56.2668C133.198 56.5396 132.993 56.8868 132.844 57.3084C132.696 57.7176 132.621 58.1888 132.621 58.722C132.621 59.7884 132.888 60.6068 133.421 61.1772C133.954 61.7352 134.667 62.0142 135.56 62.0142C136.081 62.0142 136.515 61.946 136.862 61.8096C137.209 61.6608 137.519 61.4934 137.792 61.3074C137.928 61.3818 138.04 61.4748 138.127 61.5864C138.214 61.698 138.257 61.8344 138.257 61.9956C138.257 62.1692 138.189 62.3304 138.052 62.4792C137.916 62.628 137.724 62.7582 137.476 62.8698C137.24 62.9814 136.955 63.0682 136.62 63.1302C136.298 63.2046 135.944 63.2418 135.56 63.2418C134.915 63.2418 134.32 63.1488 133.774 62.9628C133.229 62.7768 132.758 62.4978 132.361 62.1258C131.964 61.7538 131.654 61.2888 131.431 60.7308C131.208 60.1604 131.096 59.4908 131.096 58.722C131.096 57.9656 131.214 57.3084 131.449 56.7504C131.685 56.18 132.001 55.7026 132.398 55.3182C132.795 54.9338 133.26 54.6486 133.793 54.4626C134.339 54.2642 134.915 54.165 135.523 54.165C135.907 54.165 136.261 54.2022 136.583 54.2766C136.918 54.3386 137.203 54.4316 137.439 54.5556C137.674 54.6796 137.854 54.8222 137.978 54.9834C138.114 55.1322 138.183 55.2872 138.183 55.4484C138.183 55.5972 138.139 55.7274 138.052 55.839C137.966 55.9506 137.854 56.0374 137.718 56.0994C137.445 55.9134 137.147 55.7522 136.825 55.6158C136.502 55.4794 136.081 55.4112 135.56 55.4112ZM143.401 63.2418C142.533 63.2418 141.826 63.0496 141.28 62.6652C140.747 62.2808 140.48 61.6422 140.48 60.7494V51.9144C140.542 51.8896 140.635 51.8648 140.759 51.84C140.896 51.8028 141.038 51.7842 141.187 51.7842C141.708 51.7842 141.968 52.0074 141.968 52.4538V54.5928H145.019C145.056 54.6548 145.093 54.7416 145.13 54.8532C145.168 54.9524 145.186 55.064 145.186 55.188C145.186 55.6096 145 55.8204 144.628 55.8204H141.968V60.6564C141.968 61.1524 142.105 61.5058 142.378 61.7166C142.663 61.915 143.06 62.0142 143.568 62.0142C143.779 62.0142 144.014 61.977 144.275 61.9026C144.535 61.8282 144.752 61.7414 144.926 61.6422C145 61.7166 145.068 61.8096 145.13 61.9212C145.192 62.0328 145.223 62.163 145.223 62.3118C145.223 62.5846 145.062 62.8078 144.74 62.9814C144.417 63.155 143.971 63.2418 143.401 63.2418ZM148.963 62.9628C148.901 62.9876 148.808 63.0124 148.684 63.0372C148.56 63.0744 148.424 63.093 148.275 63.093C147.742 63.093 147.475 62.8698 147.475 62.4234V54.444C147.537 54.4192 147.63 54.3944 147.754 54.3696C147.891 54.3324 148.033 54.3138 148.182 54.3138C148.703 54.3138 148.963 54.5432 148.963 55.002V62.9628ZM147.252 51.6912C147.252 51.4308 147.339 51.2138 147.513 51.0402C147.699 50.8542 147.934 50.7612 148.219 50.7612C148.505 50.7612 148.734 50.8542 148.908 51.0402C149.081 51.2138 149.168 51.4308 149.168 51.6912C149.168 51.9516 149.081 52.1748 148.908 52.3608C148.734 52.5344 148.505 52.6212 148.219 52.6212C147.934 52.6212 147.699 52.5344 147.513 52.3608C147.339 52.1748 147.252 51.9516 147.252 51.6912ZM157.821 57.4014C157.821 56.707 157.622 56.1986 157.226 55.8762C156.841 55.5538 156.32 55.3926 155.663 55.3926C155.167 55.3926 154.727 55.4546 154.343 55.5786C153.958 55.7026 153.63 55.8452 153.357 56.0064V62.9628C153.295 62.9876 153.202 63.0124 153.078 63.0372C152.954 63.0744 152.817 63.093 152.669 63.093C152.135 63.093 151.869 62.8698 151.869 62.4234V56.0808C151.869 55.8204 151.918 55.6096 152.018 55.4484C152.129 55.2748 152.315 55.1074 152.576 54.9462C152.898 54.7478 153.326 54.568 153.859 54.4068C154.392 54.2456 154.994 54.165 155.663 54.165C156.792 54.165 157.678 54.4192 158.323 54.9276C158.98 55.436 159.309 56.2358 159.309 57.327V62.9628C159.247 62.9876 159.148 63.0124 159.011 63.0372C158.887 63.0744 158.757 63.093 158.621 63.093C158.087 63.093 157.821 62.8698 157.821 62.4234V57.4014ZM167.843 62.1072C167.632 62.2808 167.34 62.4296 166.968 62.5536C166.609 62.6776 166.175 62.7396 165.666 62.7396C165.121 62.7396 164.606 62.6652 164.123 62.5164C163.639 62.3552 163.211 62.1072 162.839 61.7724C162.48 61.4252 162.188 60.9788 161.965 60.4332C161.754 59.8876 161.649 59.2242 161.649 58.443C161.649 57.7362 161.754 57.1162 161.965 56.583C162.176 56.0498 162.467 55.6034 162.839 55.2438C163.224 54.8842 163.676 54.6176 164.197 54.444C164.718 54.258 165.294 54.165 165.927 54.165C166.497 54.165 167.018 54.2394 167.489 54.3882C167.973 54.5246 168.376 54.6982 168.698 54.909C168.884 55.033 169.033 55.1756 169.145 55.3368C169.269 55.4856 169.331 55.6716 169.331 55.8948V63.372C169.331 63.992 169.225 64.5128 169.014 64.9344C168.816 65.3684 168.531 65.7156 168.159 65.976C167.799 66.2488 167.371 66.4472 166.875 66.5712C166.379 66.6952 165.846 66.7572 165.276 66.7572C164.643 66.7572 164.104 66.689 163.658 66.5526C163.224 66.4286 162.926 66.317 162.765 66.2178C162.393 66.007 162.207 65.7404 162.207 65.418C162.207 65.2444 162.244 65.0956 162.318 64.9716C162.405 64.86 162.511 64.7732 162.635 64.7112C162.895 64.9096 163.261 65.0894 163.732 65.2506C164.203 65.4242 164.718 65.511 165.276 65.511C166.107 65.511 166.739 65.3312 167.173 64.9716C167.619 64.6244 167.843 64.0602 167.843 63.279V62.1072ZM165.834 61.512C166.33 61.512 166.733 61.4376 167.043 61.2888C167.365 61.1276 167.632 60.9478 167.843 60.7494V55.9134C167.632 55.777 167.365 55.6592 167.043 55.56C166.733 55.4484 166.361 55.3926 165.927 55.3926C165.084 55.3926 164.408 55.6468 163.899 56.1552C163.403 56.6636 163.155 57.42 163.155 58.4244C163.155 58.9824 163.224 59.4598 163.36 59.8566C163.496 60.241 163.682 60.5572 163.918 60.8052C164.166 61.0532 164.451 61.233 164.774 61.3446C165.108 61.4562 165.462 61.512 165.834 61.512ZM182.375 59.9868H177.39C177.303 60.2348 177.21 60.5076 177.111 60.8052C177.012 61.0904 176.913 61.3756 176.813 61.6608C176.727 61.9336 176.64 62.194 176.553 62.442C176.466 62.6776 176.398 62.876 176.348 63.0372C176.175 63.1116 175.97 63.1488 175.735 63.1488C175.536 63.1488 175.356 63.0992 175.195 63C175.046 62.8884 174.972 62.7148 174.972 62.4792C174.972 62.3676 174.991 62.256 175.028 62.1444C175.065 62.0204 175.108 61.8902 175.158 61.7538C175.344 61.233 175.58 60.5634 175.865 59.745C176.162 58.9266 176.479 58.0586 176.813 57.141C177.161 56.211 177.508 55.281 177.855 54.351C178.215 53.4086 178.543 52.5654 178.841 51.8214C178.94 51.7718 179.089 51.7222 179.287 51.6726C179.486 51.623 179.69 51.5982 179.901 51.5982C180.149 51.5982 180.385 51.6354 180.608 51.7098C180.843 51.7842 180.992 51.9082 181.054 52.0818C181.352 52.801 181.668 53.6256 182.003 54.5556C182.35 55.4732 182.697 56.4156 183.044 57.3828C183.392 58.35 183.72 59.3048 184.03 60.2472C184.353 61.1772 184.638 62.0204 184.886 62.7768C184.787 62.8884 184.669 62.9752 184.532 63.0372C184.396 63.1116 184.241 63.1488 184.067 63.1488C183.832 63.1488 183.652 63.0992 183.528 63C183.404 62.8884 183.299 62.7086 183.212 62.4606L182.375 59.9868ZM179.882 52.863C179.746 53.235 179.591 53.6628 179.417 54.1464C179.244 54.6176 179.064 55.1136 178.878 55.6344C178.692 56.1552 178.506 56.6822 178.32 57.2154C178.134 57.7486 177.96 58.257 177.799 58.7406H181.984C181.798 58.1826 181.606 57.6246 181.408 57.0666C181.209 56.4962 181.017 55.9506 180.831 55.4298C180.657 54.909 180.49 54.4316 180.329 53.9976C180.18 53.5512 180.056 53.173 179.957 52.863H179.882ZM194.832 58.7034C194.832 59.3978 194.733 60.024 194.535 60.582C194.336 61.14 194.051 61.6174 193.679 62.0142C193.319 62.411 192.879 62.7148 192.358 62.9256C191.838 63.1364 191.255 63.2418 190.61 63.2418C189.965 63.2418 189.382 63.1364 188.862 62.9256C188.341 62.7148 187.894 62.411 187.522 62.0142C187.15 61.6174 186.865 61.14 186.667 60.582C186.468 60.024 186.369 59.3978 186.369 58.7034C186.369 58.009 186.468 57.3828 186.667 56.8248C186.878 56.2668 187.169 55.7894 187.541 55.3926C187.913 54.9958 188.359 54.692 188.88 54.4812C189.401 54.2704 189.978 54.165 190.61 54.165C191.242 54.165 191.819 54.2704 192.34 54.4812C192.861 54.692 193.301 54.9958 193.66 55.3926C194.032 55.7894 194.318 56.2668 194.516 56.8248C194.727 57.3828 194.832 58.009 194.832 58.7034ZM190.61 55.3926C189.767 55.3926 189.103 55.684 188.62 56.2668C188.136 56.8496 187.894 57.6618 187.894 58.7034C187.894 59.7574 188.13 60.5758 188.601 61.1586C189.085 61.729 189.754 62.0142 190.61 62.0142C191.466 62.0142 192.129 61.7228 192.6 61.14C193.071 60.5572 193.307 59.745 193.307 58.7034C193.307 57.6618 193.065 56.8496 192.582 56.2668C192.11 55.684 191.453 55.3926 190.61 55.3926ZM200.072 63.2418C199.204 63.2418 198.498 63.0496 197.952 62.6652C197.419 62.2808 197.152 61.6422 197.152 60.7494V51.9144C197.214 51.8896 197.307 51.8648 197.431 51.84C197.568 51.8028 197.71 51.7842 197.859 51.7842C198.38 51.7842 198.64 52.0074 198.64 52.4538V54.5928H201.691C201.728 54.6548 201.765 54.7416 201.802 54.8532C201.839 54.9524 201.858 55.064 201.858 55.188C201.858 55.6096 201.672 55.8204 201.3 55.8204H198.64V60.6564C198.64 61.1524 198.777 61.5058 199.049 61.7166C199.335 61.915 199.731 62.0142 200.24 62.0142C200.451 62.0142 200.686 61.977 200.947 61.9026C201.207 61.8282 201.424 61.7414 201.598 61.6422C201.672 61.7166 201.74 61.8096 201.802 61.9212C201.864 62.0328 201.895 62.163 201.895 62.3118C201.895 62.5846 201.734 62.8078 201.412 62.9814C201.089 63.155 200.643 63.2418 200.072 63.2418ZM204.842 59.5776C205.177 61.202 206.243 62.0142 208.041 62.0142C208.562 62.0142 209.033 61.9274 209.455 61.7538C209.876 61.5802 210.211 61.3942 210.459 61.1958C210.757 61.3694 210.906 61.605 210.906 61.9026C210.906 62.0762 210.825 62.2436 210.664 62.4048C210.515 62.566 210.304 62.7086 210.031 62.8326C209.771 62.9566 209.461 63.0558 209.101 63.1302C208.754 63.2046 208.376 63.2418 207.967 63.2418C206.528 63.2418 205.388 62.8512 204.544 62.07C203.714 61.2888 203.298 60.148 203.298 58.6476C203.298 57.9408 203.397 57.3146 203.596 56.769C203.807 56.211 204.092 55.7398 204.451 55.3554C204.823 54.971 205.264 54.6796 205.772 54.4812C206.28 54.2704 206.832 54.165 207.427 54.165C207.985 54.165 208.5 54.258 208.971 54.444C209.442 54.63 209.845 54.8966 210.18 55.2438C210.527 55.5786 210.794 55.9816 210.98 56.4528C211.178 56.9116 211.278 57.42 211.278 57.978C211.278 58.2508 211.216 58.4492 211.092 58.5732C210.968 58.6848 210.794 58.753 210.571 58.7778L204.842 59.5776ZM207.409 55.374C206.652 55.374 206.026 55.6406 205.53 56.1738C205.034 56.6946 204.774 57.4448 204.749 58.4244L209.864 57.7176C209.802 57.0356 209.56 56.4776 209.139 56.0436C208.729 55.5972 208.153 55.374 207.409 55.374ZM216.496 62.0328C217.017 62.0328 217.444 61.9832 217.779 61.884C218.126 61.7724 218.374 61.667 218.523 61.5678V58.8708L216.217 59.1126C215.572 59.1746 215.095 59.3234 214.785 59.559C214.475 59.7822 214.32 60.117 214.32 60.5634C214.32 61.0346 214.499 61.4004 214.859 61.6608C215.219 61.9088 215.764 62.0328 216.496 62.0328ZM216.477 54.165C217.556 54.165 218.412 54.4068 219.044 54.8904C219.676 55.374 219.993 56.1366 219.993 57.1782V61.5864C219.993 61.8592 219.937 62.07 219.825 62.2188C219.726 62.3552 219.571 62.4854 219.36 62.6094C219.063 62.783 218.666 62.9318 218.17 63.0558C217.686 63.1922 217.128 63.2604 216.496 63.2604C215.33 63.2604 214.425 63.031 213.78 62.5722C213.148 62.1134 212.832 61.45 212.832 60.582C212.832 59.7636 213.098 59.1498 213.631 58.7406C214.165 58.319 214.915 58.0586 215.882 57.9594L218.523 57.699V57.1782C218.523 56.5582 218.337 56.1056 217.965 55.8204C217.593 55.5352 217.091 55.3926 216.459 55.3926C215.938 55.3926 215.448 55.467 214.989 55.6158C214.53 55.7646 214.121 55.932 213.762 56.118C213.662 56.0312 213.569 55.932 213.483 55.8204C213.408 55.7088 213.371 55.5848 213.371 55.4484C213.371 55.2748 213.414 55.1322 213.501 55.0206C213.588 54.909 213.724 54.8036 213.91 54.7044C214.245 54.5308 214.63 54.4006 215.064 54.3138C215.498 54.2146 215.969 54.165 216.477 54.165ZM224.197 62.9628C224.135 62.9876 224.042 63.0124 223.918 63.0372C223.794 63.0744 223.657 63.093 223.508 63.093C222.975 63.093 222.709 62.8698 222.709 62.4234V56.118C222.709 55.8328 222.758 55.6096 222.857 55.4484C222.969 55.2748 223.149 55.1074 223.397 54.9462C223.719 54.7354 224.153 54.5556 224.699 54.4068C225.257 54.2456 225.883 54.165 226.577 54.165C227.569 54.165 228.065 54.413 228.065 54.909C228.065 55.033 228.047 55.1508 228.01 55.2624C227.972 55.3616 227.923 55.4484 227.861 55.5228C227.737 55.498 227.576 55.4732 227.377 55.4484C227.179 55.4236 226.98 55.4112 226.782 55.4112C226.212 55.4112 225.709 55.4732 225.275 55.5972C224.841 55.7088 224.482 55.8452 224.197 56.0064V62.9628ZM237.609 58.7034C237.609 59.3978 237.509 60.024 237.311 60.582C237.113 61.14 236.827 61.6174 236.455 62.0142C236.096 62.411 235.656 62.7148 235.135 62.9256C234.614 63.1364 234.031 63.2418 233.386 63.2418C232.742 63.2418 232.159 63.1364 231.638 62.9256C231.117 62.7148 230.671 62.411 230.299 62.0142C229.927 61.6174 229.642 61.14 229.443 60.582C229.245 60.024 229.146 59.3978 229.146 58.7034C229.146 58.009 229.245 57.3828 229.443 56.8248C229.654 56.2668 229.945 55.7894 230.317 55.3926C230.689 54.9958 231.136 54.692 231.657 54.4812C232.177 54.2704 232.754 54.165 233.386 54.165C234.019 54.165 234.595 54.2704 235.116 54.4812C235.637 54.692 236.077 54.9958 236.437 55.3926C236.809 55.7894 237.094 56.2668 237.292 56.8248C237.503 57.3828 237.609 58.009 237.609 58.7034ZM233.386 55.3926C232.543 55.3926 231.88 55.684 231.396 56.2668C230.913 56.8496 230.671 57.6618 230.671 58.7034C230.671 59.7574 230.906 60.5758 231.378 61.1586C231.861 61.729 232.531 62.0142 233.386 62.0142C234.242 62.0142 234.905 61.7228 235.377 61.14C235.848 60.5572 236.083 59.745 236.083 58.7034C236.083 57.6618 235.842 56.8496 235.358 56.2668C234.887 55.684 234.23 55.3926 233.386 55.3926ZM243.015 62.0328C243.536 62.0328 243.964 61.9832 244.299 61.884C244.646 61.7724 244.894 61.667 245.043 61.5678V58.8708L242.736 59.1126C242.092 59.1746 241.614 59.3234 241.304 59.559C240.994 59.7822 240.839 60.117 240.839 60.5634C240.839 61.0346 241.019 61.4004 241.379 61.6608C241.738 61.9088 242.284 62.0328 243.015 62.0328ZM242.997 54.165C244.076 54.165 244.931 54.4068 245.564 54.8904C246.196 55.374 246.512 56.1366 246.512 57.1782V61.5864C246.512 61.8592 246.456 62.07 246.345 62.2188C246.246 62.3552 246.091 62.4854 245.88 62.6094C245.582 62.783 245.185 62.9318 244.689 63.0558C244.206 63.1922 243.648 63.2604 243.015 63.2604C241.85 63.2604 240.945 63.031 240.3 62.5722C239.667 62.1134 239.351 61.45 239.351 60.582C239.351 59.7636 239.618 59.1498 240.151 58.7406C240.684 58.319 241.434 58.0586 242.402 57.9594L245.043 57.699V57.1782C245.043 56.5582 244.857 56.1056 244.485 55.8204C244.113 55.5352 243.611 55.3926 242.978 55.3926C242.457 55.3926 241.968 55.467 241.509 55.6158C241.05 55.7646 240.641 55.932 240.281 56.118C240.182 56.0312 240.089 55.932 240.002 55.8204C239.928 55.7088 239.891 55.5848 239.891 55.4484C239.891 55.2748 239.934 55.1322 240.021 55.0206C240.108 54.909 240.244 54.8036 240.43 54.7044C240.765 54.5308 241.149 54.4006 241.583 54.3138C242.017 54.2146 242.488 54.165 242.997 54.165ZM254.458 54.8904H258.141C258.178 54.9524 258.216 55.033 258.253 55.1322C258.29 55.2314 258.309 55.3492 258.309 55.4856C258.309 55.8948 258.116 56.0994 257.732 56.0994H254.477V62.9628C254.415 62.9876 254.322 63.0124 254.198 63.0372C254.074 63.0744 253.938 63.093 253.789 63.093C253.256 63.093 252.989 62.8698 252.989 62.4234V53.6442C252.989 52.553 253.28 51.7656 253.863 51.282C254.458 50.786 255.283 50.538 256.337 50.538C257.044 50.538 257.596 50.631 257.992 50.817C258.402 51.003 258.606 51.2324 258.606 51.5052C258.606 51.778 258.501 52.0074 258.29 52.1934C258.067 52.0694 257.788 51.9702 257.453 51.8958C257.118 51.809 256.796 51.7656 256.486 51.7656C255.729 51.7656 255.202 51.9206 254.905 52.2306C254.607 52.5406 254.458 53.0366 254.458 53.7186V54.8904ZM261.142 62.9628C261.08 62.9876 260.987 63.0124 260.863 63.0372C260.739 63.0744 260.603 63.093 260.454 63.093C259.921 63.093 259.654 62.8698 259.654 62.4234V56.118C259.654 55.8328 259.704 55.6096 259.803 55.4484C259.915 55.2748 260.095 55.1074 260.343 54.9462C260.665 54.7354 261.099 54.5556 261.645 54.4068C262.203 54.2456 262.829 54.165 263.523 54.165C264.515 54.165 265.011 54.413 265.011 54.909C265.011 55.033 264.993 55.1508 264.955 55.2624C264.918 55.3616 264.869 55.4484 264.807 55.5228C264.683 55.498 264.521 55.4732 264.323 55.4484C264.125 55.4236 263.926 55.4112 263.728 55.4112C263.157 55.4112 262.655 55.4732 262.221 55.5972C261.787 55.7088 261.428 55.8452 261.142 56.0064V62.9628ZM274.554 58.7034C274.554 59.3978 274.455 60.024 274.257 60.582C274.058 61.14 273.773 61.6174 273.401 62.0142C273.041 62.411 272.601 62.7148 272.08 62.9256C271.56 63.1364 270.977 63.2418 270.332 63.2418C269.687 63.2418 269.104 63.1364 268.584 62.9256C268.063 62.7148 267.616 62.411 267.244 62.0142C266.872 61.6174 266.587 61.14 266.389 60.582C266.19 60.024 266.091 59.3978 266.091 58.7034C266.091 58.009 266.19 57.3828 266.389 56.8248C266.6 56.2668 266.891 55.7894 267.263 55.3926C267.635 54.9958 268.081 54.692 268.602 54.4812C269.123 54.2704 269.7 54.165 270.332 54.165C270.964 54.165 271.541 54.2704 272.062 54.4812C272.583 54.692 273.023 54.9958 273.382 55.3926C273.754 55.7894 274.04 56.2668 274.238 56.8248C274.449 57.3828 274.554 58.009 274.554 58.7034ZM270.332 55.3926C269.489 55.3926 268.825 55.684 268.342 56.2668C267.858 56.8496 267.616 57.6618 267.616 58.7034C267.616 59.7574 267.852 60.5758 268.323 61.1586C268.807 61.729 269.476 62.0142 270.332 62.0142C271.188 62.0142 271.851 61.7228 272.322 61.14C272.793 60.5572 273.029 59.745 273.029 58.7034C273.029 57.6618 272.787 56.8496 272.304 56.2668C271.832 55.684 271.175 55.3926 270.332 55.3926ZM287.755 57.1596C287.755 56.552 287.582 56.1056 287.235 55.8204C286.887 55.5352 286.422 55.3926 285.84 55.3926C285.034 55.3926 284.314 55.6778 283.682 56.2482C283.756 56.4962 283.794 56.7628 283.794 57.048V62.9628C283.732 62.9876 283.632 63.0124 283.496 63.0372C283.372 63.0744 283.242 63.093 283.105 63.093C282.572 63.093 282.306 62.8698 282.306 62.4234V57.1596C282.306 56.552 282.132 56.1056 281.785 55.8204C281.438 55.5352 280.966 55.3926 280.371 55.3926C279.974 55.3926 279.596 55.4546 279.237 55.5786C278.889 55.7026 278.592 55.8452 278.344 56.0064V62.9628C278.282 62.9876 278.189 63.0124 278.065 63.0372C277.941 63.0744 277.804 63.093 277.656 63.093C277.122 63.093 276.856 62.8698 276.856 62.4234V56.0808C276.856 55.8328 276.905 55.6282 277.005 55.467C277.116 55.2934 277.302 55.1198 277.563 54.9462C277.897 54.7354 278.319 54.5556 278.827 54.4068C279.348 54.2456 279.869 54.165 280.39 54.165C280.997 54.165 281.537 54.258 282.008 54.444C282.479 54.6176 282.839 54.8594 283.087 55.1694C283.409 54.8842 283.812 54.6486 284.296 54.4626C284.779 54.2642 285.331 54.165 285.951 54.165C286.956 54.165 287.755 54.4068 288.351 54.8904C288.946 55.3616 289.243 56.0932 289.243 57.0852V62.9628C289.181 62.9876 289.082 63.0124 288.946 63.0372C288.822 63.0744 288.692 63.093 288.555 63.093C288.022 63.093 287.755 62.8698 287.755 62.4234V57.1596ZM304.283 52.9374C304.283 53.111 304.228 53.2598 304.116 53.3838C304.017 53.5078 303.899 53.6008 303.763 53.6628C303.44 53.4396 303.062 53.2288 302.628 53.0304C302.194 52.832 301.63 52.7328 300.935 52.7328C300.365 52.7328 299.838 52.832 299.354 53.0304C298.871 53.2288 298.449 53.5202 298.09 53.9046C297.73 54.289 297.445 54.7726 297.234 55.3554C297.036 55.9382 296.936 56.6078 296.936 57.3642C296.936 58.133 297.036 58.8026 297.234 59.373C297.432 59.9434 297.705 60.4208 298.052 60.8052C298.412 61.1896 298.84 61.481 299.336 61.6794C299.832 61.8654 300.384 61.9584 300.991 61.9584C301.636 61.9584 302.194 61.8716 302.665 61.698C303.149 61.512 303.552 61.295 303.874 61.047C303.998 61.0966 304.116 61.1896 304.228 61.326C304.339 61.45 304.395 61.5988 304.395 61.7724C304.395 62.0328 304.246 62.2684 303.949 62.4792C303.663 62.6776 303.273 62.8512 302.777 63C302.281 63.1612 301.648 63.2418 300.88 63.2418C300.098 63.2418 299.373 63.1178 298.703 62.8698C298.034 62.6218 297.451 62.256 296.955 61.7724C296.471 61.2764 296.087 60.6626 295.802 59.931C295.517 59.1994 295.374 58.3438 295.374 57.3642C295.374 56.3846 295.517 55.529 295.802 54.7974C296.099 54.0534 296.496 53.4334 296.992 52.9374C297.488 52.4414 298.065 52.0694 298.722 51.8214C299.392 51.5734 300.092 51.4494 300.824 51.4494C301.332 51.4494 301.797 51.4928 302.219 51.5796C302.653 51.6664 303.019 51.7842 303.316 51.933C303.626 52.0694 303.862 52.2306 304.023 52.4166C304.197 52.5902 304.283 52.7638 304.283 52.9374ZM316.915 57.3456C316.915 58.3128 316.779 59.1684 316.506 59.9124C316.233 60.644 315.855 61.2578 315.371 61.7538C314.888 62.2374 314.317 62.6094 313.66 62.8698C313.003 63.1178 312.29 63.2418 311.521 63.2418C310.752 63.2418 310.039 63.1178 309.382 62.8698C308.725 62.6094 308.154 62.2374 307.671 61.7538C307.187 61.2578 306.809 60.644 306.536 59.9124C306.263 59.1684 306.127 58.3128 306.127 57.3456C306.127 56.3784 306.263 55.529 306.536 54.7974C306.821 54.0658 307.206 53.452 307.689 52.956C308.173 52.46 308.743 52.088 309.401 51.84C310.058 51.5796 310.765 51.4494 311.521 51.4494C312.277 51.4494 312.984 51.5796 313.641 51.84C314.299 52.088 314.869 52.46 315.353 52.956C315.836 53.452 316.214 54.0658 316.487 54.7974C316.772 55.529 316.915 56.3784 316.915 57.3456ZM315.371 57.3456C315.371 55.8576 315.018 54.7168 314.311 53.9232C313.617 53.1296 312.687 52.7328 311.521 52.7328C310.938 52.7328 310.411 52.8382 309.94 53.049C309.469 53.2474 309.066 53.545 308.731 53.9418C308.396 54.3262 308.136 54.8036 307.95 55.374C307.776 55.9444 307.689 56.6016 307.689 57.3456C307.689 58.8336 308.037 59.9744 308.731 60.768C309.425 61.5616 310.355 61.9584 311.521 61.9584C312.699 61.9584 313.635 61.5616 314.33 60.768C315.024 59.9744 315.371 58.8336 315.371 57.3456ZM324.183 62.8512C324.121 62.9132 324.003 62.969 323.829 63.0186C323.656 63.0682 323.464 63.093 323.253 63.093C323.017 63.093 322.806 63.062 322.62 63C322.434 62.9256 322.31 62.8202 322.248 62.6838C322.087 62.3614 321.895 61.946 321.672 61.4376C321.461 60.9292 321.232 60.365 320.984 59.745C320.748 59.1126 320.5 58.4492 320.24 57.7548C319.992 57.0604 319.75 56.3722 319.514 55.6902C319.279 55.0082 319.055 54.351 318.845 53.7186C318.634 53.0738 318.454 52.4972 318.305 51.9888C318.38 51.8896 318.491 51.7966 318.64 51.7098C318.789 51.623 318.956 51.5796 319.142 51.5796C319.378 51.5796 319.551 51.6354 319.663 51.747C319.775 51.8586 319.868 52.026 319.942 52.2492C320.5 53.8736 321.033 55.4422 321.542 56.955C322.05 58.4678 322.608 60.0054 323.216 61.5678H323.29C323.563 60.861 323.842 60.1108 324.127 59.3172C324.425 58.5112 324.71 57.6866 324.983 56.8434C325.268 55.9878 325.541 55.126 325.801 54.258C326.074 53.39 326.316 52.5406 326.526 51.7098C326.688 51.623 326.898 51.5796 327.159 51.5796C327.382 51.5796 327.562 51.6354 327.698 51.747C327.835 51.8586 327.903 52.026 327.903 52.2492C327.903 52.4352 327.828 52.7886 327.68 53.3094C327.543 53.8178 327.363 54.413 327.14 55.095C326.917 55.777 326.663 56.5086 326.378 57.2898C326.105 58.071 325.832 58.8212 325.559 59.5404C325.286 60.2596 325.026 60.9168 324.778 61.512C324.53 62.1072 324.332 62.5536 324.183 62.8512ZM331.753 62.9628C331.691 62.9876 331.598 63.0124 331.474 63.0372C331.35 63.0744 331.214 63.093 331.065 63.093C330.519 63.093 330.246 62.8636 330.246 62.4048V51.7284C330.308 51.7036 330.401 51.6788 330.525 51.654C330.662 51.6168 330.804 51.5982 330.953 51.5982C331.486 51.5982 331.753 51.8276 331.753 52.2864V62.9628ZM343.019 57.2154C343.019 56.4218 342.895 55.746 342.647 55.188C342.412 54.6176 342.083 54.1526 341.662 53.793C341.252 53.4334 340.769 53.173 340.211 53.0118C339.665 52.8382 339.076 52.7514 338.444 52.7514C338.047 52.7514 337.7 52.7638 337.402 52.7886C337.117 52.8134 336.85 52.8506 336.602 52.9002V61.7538C336.9 61.8282 337.216 61.8778 337.551 61.9026C337.898 61.9274 338.252 61.9398 338.611 61.9398C340.074 61.9398 341.172 61.543 341.903 60.7494C342.647 59.9558 343.019 58.7778 343.019 57.2154ZM344.563 57.2154C344.563 58.2322 344.421 59.1188 344.135 59.8752C343.863 60.6192 343.466 61.2392 342.945 61.7352C342.437 62.2312 341.817 62.6032 341.085 62.8512C340.353 63.0868 339.535 63.2046 338.63 63.2046C338.233 63.2046 337.787 63.186 337.291 63.1488C336.795 63.124 336.323 63.0434 335.877 62.907C335.356 62.7458 335.096 62.4606 335.096 62.0514V52.491C335.096 52.2926 335.145 52.1438 335.245 52.0446C335.344 51.933 335.499 51.8462 335.71 51.7842C336.094 51.6602 336.528 51.5796 337.012 51.5424C337.495 51.5052 337.979 51.4866 338.462 51.4866C339.368 51.4866 340.192 51.6106 340.936 51.8586C341.693 52.0942 342.337 52.4538 342.871 52.9374C343.404 53.4086 343.819 54.0038 344.117 54.723C344.414 55.4298 344.563 56.2606 344.563 57.2154ZM346.709 58.7592C346.671 58.6724 346.64 58.5856 346.616 58.4988C346.591 58.3996 346.578 58.288 346.578 58.164C346.578 57.7424 346.795 57.5316 347.229 57.5316H351.675C351.7 57.606 351.724 57.6928 351.749 57.792C351.786 57.8912 351.805 57.9966 351.805 58.1082C351.805 58.5422 351.588 58.7592 351.154 58.7592H346.709ZM353.277 54.258C353.116 54.196 352.979 54.103 352.868 53.979C352.769 53.855 352.719 53.7 352.719 53.514C352.719 53.3156 352.769 53.1544 352.868 53.0304C352.967 52.9064 353.141 52.7948 353.389 52.6956L355.993 51.561H356.346C356.594 51.561 356.792 51.6354 356.941 51.7842C357.09 51.933 357.164 52.1314 357.164 52.3794V63.0186C357.09 63.0434 356.991 63.0682 356.867 63.093C356.743 63.1302 356.606 63.1488 356.458 63.1488C355.924 63.1488 355.658 62.9194 355.658 62.4606V53.142L353.277 54.258ZM360.722 62.0886C360.722 61.9398 360.759 61.7972 360.834 61.6608C360.921 61.5244 361.026 61.4252 361.15 61.3632C361.386 61.4996 361.689 61.636 362.061 61.7724C362.446 61.8964 362.898 61.9584 363.419 61.9584C363.903 61.9584 364.355 61.884 364.777 61.7352C365.211 61.5864 365.589 61.3446 365.912 61.0098C366.234 60.675 366.488 60.241 366.674 59.7078C366.86 59.1622 366.953 58.4988 366.953 57.7176C366.866 57.8168 366.742 57.9346 366.581 58.071C366.42 58.195 366.215 58.319 365.967 58.443C365.732 58.5546 365.459 58.6538 365.149 58.7406C364.839 58.815 364.492 58.8522 364.107 58.8522C363.587 58.8522 363.084 58.784 362.601 58.6476C362.117 58.5112 361.696 58.3004 361.336 58.0152C360.976 57.73 360.685 57.358 360.462 56.8992C360.251 56.4404 360.146 55.8824 360.146 55.2252C360.146 54.6424 360.245 54.1216 360.443 53.6628C360.654 53.1916 360.933 52.7948 361.28 52.4724C361.64 52.15 362.055 51.902 362.526 51.7284C363.01 51.5548 363.525 51.468 364.07 51.468C364.703 51.468 365.285 51.5796 365.819 51.8028C366.364 52.0136 366.829 52.3484 367.214 52.8072C367.61 53.2536 367.914 53.824 368.125 54.5184C368.348 55.2128 368.46 56.0374 368.46 56.9922C368.46 58.133 368.336 59.1002 368.088 59.8938C367.852 60.6874 367.511 61.3322 367.065 61.8282C366.631 62.3242 366.104 62.6838 365.484 62.907C364.864 63.1302 364.182 63.2418 363.438 63.2418C363.066 63.2418 362.712 63.217 362.378 63.1674C362.055 63.1178 361.77 63.0434 361.522 62.9442C361.274 62.845 361.076 62.7272 360.927 62.5908C360.79 62.442 360.722 62.2746 360.722 62.0886ZM364.312 57.606C364.622 57.606 364.913 57.5688 365.186 57.4944C365.471 57.4076 365.732 57.296 365.967 57.1596C366.203 57.0108 366.401 56.8496 366.563 56.676C366.736 56.49 366.866 56.304 366.953 56.118C366.928 55.064 366.662 54.2332 366.153 53.6256C365.657 53.018 364.963 52.7142 364.07 52.7142C363.376 52.7142 362.799 52.9312 362.34 53.3652C361.882 53.7992 361.652 54.4068 361.652 55.188C361.652 55.622 361.72 55.994 361.857 56.304C361.993 56.6016 362.179 56.8496 362.415 57.048C362.663 57.234 362.948 57.3766 363.27 57.4758C363.593 57.5626 363.94 57.606 364.312 57.606Z" fill="black"/>
<path d="M90.59 37.06C89.83 37.06 89.22 36.84 88.76 36.4C88.32 35.94 88.1 35.33 88.1 34.57V18.76C88.32 18.72 88.63 18.67 89.03 18.61C89.45 18.55 89.86 18.52 90.26 18.52C91.16 18.52 91.81 18.67 92.21 18.97C92.61 19.27 92.81 19.86 92.81 20.74V33.25H100.01C100.13 33.45 100.24 33.71 100.34 34.03C100.46 34.35 100.52 34.7 100.52 35.08C100.52 35.74 100.37 36.24 100.07 36.58C99.79 36.9 99.4 37.06 98.9 37.06H90.59ZM117.379 29.77C117.379 30.95 117.199 32.02 116.839 32.98C116.479 33.92 115.959 34.72 115.279 35.38C114.619 36.04 113.819 36.55 112.879 36.91C111.939 37.27 110.889 37.45 109.729 37.45C108.569 37.45 107.509 37.28 106.549 36.94C105.609 36.58 104.799 36.07 104.119 35.41C103.459 34.75 102.949 33.95 102.589 33.01C102.229 32.05 102.049 30.97 102.049 29.77C102.049 28.61 102.229 27.56 102.589 26.62C102.969 25.66 103.489 24.85 104.149 24.19C104.829 23.53 105.639 23.02 106.579 22.66C107.539 22.3 108.589 22.12 109.729 22.12C110.869 22.12 111.909 22.3 112.849 22.66C113.789 23.02 114.589 23.54 115.249 24.22C115.929 24.88 116.449 25.68 116.809 26.62C117.189 27.56 117.379 28.61 117.379 29.77ZM109.729 25.72C108.789 25.72 108.059 26.07 107.539 26.77C107.019 27.47 106.759 28.47 106.759 29.77C106.759 31.11 107.009 32.13 107.509 32.83C108.029 33.51 108.769 33.85 109.729 33.85C110.689 33.85 111.419 33.5 111.919 32.8C112.439 32.1 112.699 31.09 112.699 29.77C112.699 28.49 112.439 27.5 111.919 26.8C111.399 26.08 110.669 25.72 109.729 25.72ZM128.002 25.75C126.922 25.75 126.002 26.1 125.242 26.8C124.482 27.48 124.102 28.49 124.102 29.83C124.102 31.17 124.462 32.17 125.182 32.83C125.922 33.49 126.852 33.82 127.972 33.82C128.612 33.82 129.172 33.74 129.652 33.58C130.152 33.4 130.572 33.22 130.912 33.04C131.252 33.3 131.512 33.58 131.692 33.88C131.892 34.16 131.992 34.51 131.992 34.93C131.992 35.69 131.592 36.3 130.792 36.76C129.992 37.22 128.882 37.45 127.462 37.45C126.262 37.45 125.162 37.29 124.162 36.97C123.182 36.65 122.342 36.17 121.642 35.53C120.942 34.89 120.402 34.1 120.022 33.16C119.642 32.2 119.452 31.09 119.452 29.83C119.452 28.53 119.662 27.4 120.082 26.44C120.502 25.48 121.072 24.68 121.792 24.04C122.512 23.4 123.352 22.92 124.312 22.6C125.272 22.28 126.282 22.12 127.342 22.12C128.722 22.12 129.802 22.37 130.582 22.87C131.382 23.37 131.782 24 131.782 24.76C131.782 25.12 131.692 25.45 131.512 25.75C131.352 26.05 131.152 26.31 130.912 26.53C130.552 26.33 130.122 26.15 129.622 25.99C129.142 25.83 128.602 25.75 128.002 25.75ZM140.76 34.09C141.2 34.09 141.63 34.05 142.05 33.97C142.49 33.87 142.82 33.75 143.04 33.61V30.85L140.58 31.06C139.94 31.12 139.42 31.27 139.02 31.51C138.64 31.73 138.45 32.07 138.45 32.53C138.45 33.01 138.63 33.39 138.99 33.67C139.35 33.95 139.94 34.09 140.76 34.09ZM140.58 22.12C141.62 22.12 142.56 22.23 143.4 22.45C144.26 22.65 144.99 22.97 145.59 23.41C146.19 23.85 146.65 24.41 146.97 25.09C147.31 25.77 147.48 26.57 147.48 27.49V34.27C147.48 34.79 147.34 35.21 147.06 35.53C146.8 35.83 146.48 36.09 146.1 36.31C145.48 36.69 144.72 36.98 143.82 37.18C142.92 37.38 141.9 37.48 140.76 37.48C138.7 37.48 137.06 37.09 135.84 36.31C134.62 35.51 134.01 34.3 134.01 32.68C134.01 31.3 134.42 30.25 135.24 29.53C136.06 28.81 137.32 28.36 139.02 28.18L143.01 27.76V27.43C143.01 26.79 142.75 26.32 142.23 26.02C141.71 25.72 140.96 25.57 139.98 25.57C139.22 25.57 138.47 25.66 137.73 25.84C137.01 26.02 136.36 26.23 135.78 26.47C135.54 26.31 135.33 26.07 135.15 25.75C134.99 25.41 134.91 25.05 134.91 24.67C134.91 23.79 135.37 23.16 136.29 22.78C136.87 22.56 137.54 22.4 138.3 22.3C139.08 22.18 139.84 22.12 140.58 22.12ZM155.405 32.23C155.405 32.79 155.585 33.2 155.945 33.46C156.305 33.7 156.805 33.82 157.445 33.82C157.745 33.82 158.065 33.79 158.405 33.73C158.745 33.65 159.035 33.56 159.275 33.46C159.455 33.66 159.605 33.89 159.725 34.15C159.845 34.41 159.905 34.71 159.905 35.05C159.905 35.75 159.625 36.33 159.065 36.79C158.525 37.23 157.575 37.45 156.215 37.45C154.535 37.45 153.225 37.07 152.285 36.31C151.345 35.53 150.875 34.27 150.875 32.53V19.06C151.095 19 151.385 18.94 151.745 18.88C152.105 18.8 152.495 18.76 152.915 18.76C153.795 18.76 154.425 18.92 154.805 19.24C155.205 19.54 155.405 20.1 155.405 20.92V22.87H159.545C159.645 23.07 159.745 23.33 159.845 23.65C159.945 23.95 159.995 24.27 159.995 24.61C159.995 25.25 159.845 25.71 159.545 25.99C159.265 26.27 158.895 26.41 158.435 26.41H155.405V32.23ZM167.273 36.97C167.073 37.03 166.793 37.08 166.433 37.12C166.073 37.18 165.673 37.21 165.233 37.21C164.333 37.21 163.683 37.07 163.283 36.79C162.903 36.49 162.713 35.92 162.713 35.08V22.75C162.913 22.69 163.193 22.63 163.553 22.57C163.913 22.51 164.313 22.48 164.753 22.48C165.653 22.48 166.293 22.63 166.673 22.93C167.073 23.23 167.273 23.8 167.273 24.64V36.97ZM162.443 18.43C162.443 17.75 162.673 17.17 163.133 16.69C163.613 16.21 164.233 15.97 164.993 15.97C165.753 15.97 166.363 16.21 166.823 16.69C167.303 17.17 167.543 17.75 167.543 18.43C167.543 19.13 167.303 19.72 166.823 20.2C166.363 20.68 165.753 20.92 164.993 20.92C164.233 20.92 163.613 20.68 163.133 20.2C162.673 19.72 162.443 19.13 162.443 18.43ZM185.465 29.77C185.465 30.95 185.285 32.02 184.925 32.98C184.565 33.92 184.045 34.72 183.365 35.38C182.705 36.04 181.905 36.55 180.965 36.91C180.025 37.27 178.975 37.45 177.815 37.45C176.655 37.45 175.595 37.28 174.635 36.94C173.695 36.58 172.885 36.07 172.205 35.41C171.545 34.75 171.035 33.95 170.675 33.01C170.315 32.05 170.135 30.97 170.135 29.77C170.135 28.61 170.315 27.56 170.675 26.62C171.055 25.66 171.575 24.85 172.235 24.19C172.915 23.53 173.725 23.02 174.665 22.66C175.625 22.3 176.675 22.12 177.815 22.12C178.955 22.12 179.995 22.3 180.935 22.66C181.875 23.02 182.675 23.54 183.335 24.22C184.015 24.88 184.535 25.68 184.895 26.62C185.275 27.56 185.465 28.61 185.465 29.77ZM177.815 25.72C176.875 25.72 176.145 26.07 175.625 26.77C175.105 27.47 174.845 28.47 174.845 29.77C174.845 31.11 175.095 32.13 175.595 32.83C176.115 33.51 176.855 33.85 177.815 33.85C178.775 33.85 179.505 33.5 180.005 32.8C180.525 32.1 180.785 31.09 180.785 29.77C180.785 28.49 180.525 27.5 180.005 26.8C179.485 26.08 178.755 25.72 177.815 25.72ZM197.528 27.79C197.528 27.09 197.318 26.57 196.898 26.23C196.478 25.89 195.918 25.72 195.218 25.72C194.738 25.72 194.298 25.78 193.898 25.9C193.498 26.02 193.128 26.17 192.788 26.35V36.97C192.588 37.03 192.308 37.08 191.948 37.12C191.588 37.18 191.188 37.21 190.748 37.21C189.848 37.21 189.198 37.07 188.798 36.79C188.398 36.49 188.198 35.92 188.198 35.08V25.81C188.198 25.29 188.308 24.87 188.528 24.55C188.748 24.23 189.058 23.93 189.458 23.65C190.098 23.19 190.918 22.82 191.918 22.54C192.938 22.26 194.058 22.12 195.278 22.12C197.458 22.12 199.138 22.6 200.318 23.56C201.518 24.52 202.118 25.89 202.118 27.67V36.97C201.898 37.03 201.608 37.08 201.248 37.12C200.888 37.18 200.488 37.21 200.048 37.21C199.148 37.21 198.498 37.07 198.098 36.79C197.718 36.49 197.528 35.92 197.528 35.08V27.79ZM217.332 32.77C217.332 34.25 216.782 35.41 215.682 36.25C214.582 37.07 212.962 37.48 210.822 37.48C209.982 37.48 209.212 37.42 208.512 37.3C207.832 37.18 207.242 37 206.742 36.76C206.242 36.52 205.852 36.22 205.572 35.86C205.292 35.5 205.152 35.08 205.152 34.6C205.152 34.16 205.242 33.79 205.422 33.49C205.602 33.17 205.832 32.91 206.112 32.71C206.692 33.05 207.352 33.35 208.092 33.61C208.832 33.87 209.692 34 210.672 34C212.092 34 212.802 33.6 212.802 32.8C212.802 32.46 212.672 32.2 212.412 32.02C212.172 31.84 211.752 31.68 211.152 31.54L209.952 31.27C208.312 30.93 207.092 30.41 206.292 29.71C205.492 28.99 205.092 27.99 205.092 26.71C205.092 25.29 205.662 24.17 206.802 23.35C207.962 22.51 209.512 22.09 211.452 22.09C212.172 22.09 212.852 22.15 213.492 22.27C214.132 22.37 214.682 22.53 215.142 22.75C215.602 22.97 215.962 23.25 216.222 23.59C216.502 23.91 216.642 24.29 216.642 24.73C216.642 25.13 216.562 25.49 216.402 25.81C216.242 26.11 216.032 26.36 215.772 26.56C215.612 26.46 215.372 26.35 215.052 26.23C214.752 26.11 214.422 26 214.062 25.9C213.702 25.8 213.322 25.72 212.922 25.66C212.522 25.6 212.152 25.57 211.812 25.57C211.112 25.57 210.562 25.67 210.162 25.87C209.782 26.05 209.592 26.33 209.592 26.71C209.592 26.99 209.702 27.21 209.922 27.37C210.142 27.53 210.542 27.68 211.122 27.82L212.262 28.09C214.082 28.49 215.382 29.07 216.162 29.83C216.942 30.59 217.332 31.57 217.332 32.77ZM240.69 29.77C240.69 30.95 240.51 32.02 240.15 32.98C239.79 33.92 239.27 34.72 238.59 35.38C237.93 36.04 237.13 36.55 236.19 36.91C235.25 37.27 234.2 37.45 233.04 37.45C231.88 37.45 230.82 37.28 229.86 36.94C228.92 36.58 228.11 36.07 227.43 35.41C226.77 34.75 226.26 33.95 225.9 33.01C225.54 32.05 225.36 30.97 225.36 29.77C225.36 28.61 225.54 27.56 225.9 26.62C226.28 25.66 226.8 24.85 227.46 24.19C228.14 23.53 228.95 23.02 229.89 22.66C230.85 22.3 231.9 22.12 233.04 22.12C234.18 22.12 235.22 22.3 236.16 22.66C237.1 23.02 237.9 23.54 238.56 24.22C239.24 24.88 239.76 25.68 240.12 26.62C240.5 27.56 240.69 28.61 240.69 29.77ZM233.04 25.72C232.1 25.72 231.37 26.07 230.85 26.77C230.33 27.47 230.07 28.47 230.07 29.77C230.07 31.11 230.32 32.13 230.82 32.83C231.34 33.51 232.08 33.85 233.04 33.85C234 33.85 234.73 33.5 235.23 32.8C235.75 32.1 236.01 31.09 236.01 29.77C236.01 28.49 235.75 27.5 235.23 26.8C234.71 26.08 233.98 25.72 233.04 25.72ZM247.862 23.62H252.962C253.062 23.82 253.162 24.07 253.262 24.37C253.382 24.67 253.442 25 253.442 25.36C253.442 26 253.292 26.46 252.992 26.74C252.712 27.02 252.342 27.16 251.882 27.16H248.072V36.97C247.872 37.03 247.592 37.08 247.232 37.12C246.872 37.18 246.472 37.21 246.032 37.21C245.132 37.21 244.482 37.07 244.082 36.79C243.682 36.49 243.482 35.92 243.482 35.08V22.33C243.482 21.35 243.642 20.5 243.962 19.78C244.302 19.06 244.762 18.48 245.342 18.04C245.922 17.58 246.602 17.24 247.382 17.02C248.162 16.8 249.002 16.69 249.902 16.69C251.322 16.69 252.372 16.88 253.052 17.26C253.752 17.62 254.102 18.22 254.102 19.06C254.102 19.44 254.022 19.78 253.862 20.08C253.722 20.36 253.552 20.58 253.352 20.74C252.972 20.62 252.562 20.52 252.122 20.44C251.702 20.36 251.222 20.32 250.682 20.32C249.762 20.32 249.062 20.49 248.582 20.83C248.102 21.15 247.862 21.7 247.862 22.48V23.62ZM265.083 37.21C264.143 37.21 263.483 37.05 263.103 36.73C262.743 36.41 262.563 35.83 262.563 34.99V18.76C262.783 18.72 263.093 18.67 263.493 18.61C263.913 18.55 264.333 18.52 264.753 18.52C265.653 18.52 266.293 18.67 266.673 18.97C267.073 19.27 267.273 19.86 267.273 20.74V36.97C267.053 37.03 266.743 37.08 266.343 37.12C265.943 37.18 265.523 37.21 265.083 37.21ZM280.379 27.79C280.379 27.09 280.169 26.57 279.749 26.23C279.329 25.89 278.769 25.72 278.069 25.72C277.589 25.72 277.149 25.78 276.749 25.9C276.349 26.02 275.979 26.17 275.639 26.35V36.97C275.439 37.03 275.159 37.08 274.799 37.12C274.439 37.18 274.039 37.21 273.599 37.21C272.699 37.21 272.049 37.07 271.649 36.79C271.249 36.49 271.049 35.92 271.049 35.08V25.81C271.049 25.29 271.159 24.87 271.379 24.55C271.599 24.23 271.909 23.93 272.309 23.65C272.949 23.19 273.769 22.82 274.769 22.54C275.789 22.26 276.909 22.12 278.129 22.12C280.309 22.12 281.989 22.6 283.169 23.56C284.369 24.52 284.969 25.89 284.969 27.67V36.97C284.749 37.03 284.459 37.08 284.099 37.12C283.739 37.18 283.339 37.21 282.899 37.21C281.999 37.21 281.349 37.07 280.949 36.79C280.569 36.49 280.379 35.92 280.379 35.08V27.79ZM292.954 32.23C292.954 32.79 293.134 33.2 293.494 33.46C293.854 33.7 294.354 33.82 294.994 33.82C295.294 33.82 295.614 33.79 295.954 33.73C296.294 33.65 296.584 33.56 296.824 33.46C297.004 33.66 297.154 33.89 297.274 34.15C297.394 34.41 297.454 34.71 297.454 35.05C297.454 35.75 297.174 36.33 296.614 36.79C296.074 37.23 295.124 37.45 293.764 37.45C292.084 37.45 290.774 37.07 289.834 36.31C288.894 35.53 288.424 34.27 288.424 32.53V19.06C288.644 19 288.934 18.94 289.294 18.88C289.654 18.8 290.044 18.76 290.464 18.76C291.344 18.76 291.974 18.92 292.354 19.24C292.754 19.54 292.954 20.1 292.954 20.92V22.87H297.094C297.194 23.07 297.294 23.33 297.394 23.65C297.494 23.95 297.544 24.27 297.544 24.61C297.544 25.25 297.394 25.71 297.094 25.99C296.814 26.27 296.444 26.41 295.984 26.41H292.954V32.23ZM303.836 31.69C304.116 32.53 304.606 33.13 305.306 33.49C306.006 33.83 306.816 34 307.736 34C308.576 34 309.366 33.89 310.106 33.67C310.846 33.43 311.446 33.17 311.906 32.89C312.206 33.09 312.456 33.35 312.656 33.67C312.856 33.99 312.956 34.34 312.956 34.72C312.956 35.18 312.816 35.58 312.536 35.92C312.256 36.26 311.866 36.55 311.366 36.79C310.886 37.01 310.306 37.17 309.626 37.27C308.966 37.39 308.236 37.45 307.436 37.45C306.256 37.45 305.166 37.29 304.166 36.97C303.166 36.63 302.306 36.14 301.586 35.5C300.866 34.84 300.296 34.02 299.876 33.04C299.476 32.06 299.276 30.91 299.276 29.59C299.276 28.31 299.476 27.2 299.876 26.26C300.296 25.32 300.846 24.54 301.526 23.92C302.226 23.3 303.016 22.85 303.896 22.57C304.796 22.27 305.716 22.12 306.656 22.12C307.676 22.12 308.606 22.28 309.446 22.6C310.306 22.9 311.036 23.33 311.636 23.89C312.256 24.45 312.736 25.12 313.076 25.9C313.416 26.68 313.586 27.53 313.586 28.45C313.586 29.09 313.416 29.57 313.076 29.89C312.736 30.21 312.256 30.42 311.636 30.52L303.836 31.69ZM306.686 25.51C305.826 25.51 305.106 25.78 304.526 26.32C303.966 26.84 303.636 27.6 303.536 28.6L309.266 27.67C309.226 27.15 308.996 26.66 308.576 26.2C308.156 25.74 307.526 25.51 306.686 25.51ZM320.815 36.97C320.615 37.03 320.335 37.08 319.975 37.12C319.615 37.18 319.215 37.21 318.775 37.21C317.875 37.21 317.225 37.07 316.825 36.79C316.425 36.49 316.225 35.92 316.225 35.08V25.93C316.225 25.37 316.365 24.89 316.645 24.49C316.925 24.09 317.315 23.74 317.815 23.44C318.475 23.04 319.265 22.73 320.185 22.51C321.125 22.27 322.105 22.15 323.125 22.15C325.205 22.15 326.245 22.85 326.245 24.25C326.245 24.59 326.195 24.9 326.095 25.18C325.995 25.46 325.885 25.7 325.765 25.9C325.305 25.8 324.745 25.75 324.085 25.75C323.505 25.75 322.925 25.82 322.345 25.96C321.765 26.1 321.255 26.29 320.815 26.53V36.97ZM331.785 31.69C332.065 32.53 332.555 33.13 333.255 33.49C333.955 33.83 334.765 34 335.685 34C336.525 34 337.315 33.89 338.055 33.67C338.795 33.43 339.395 33.17 339.855 32.89C340.155 33.09 340.405 33.35 340.605 33.67C340.805 33.99 340.905 34.34 340.905 34.72C340.905 35.18 340.765 35.58 340.485 35.92C340.205 36.26 339.815 36.55 339.315 36.79C338.835 37.01 338.255 37.17 337.575 37.27C336.915 37.39 336.185 37.45 335.385 37.45C334.205 37.45 333.115 37.29 332.115 36.97C331.115 36.63 330.255 36.14 329.535 35.5C328.815 34.84 328.245 34.02 327.825 33.04C327.425 32.06 327.225 30.91 327.225 29.59C327.225 28.31 327.425 27.2 327.825 26.26C328.245 25.32 328.795 24.54 329.475 23.92C330.175 23.3 330.965 22.85 331.845 22.57C332.745 22.27 333.665 22.12 334.605 22.12C335.625 22.12 336.555 22.28 337.395 22.6C338.255 22.9 338.985 23.33 339.585 23.89C340.205 24.45 340.685 25.12 341.025 25.9C341.365 26.68 341.535 27.53 341.535 28.45C341.535 29.09 341.365 29.57 341.025 29.89C340.685 30.21 340.205 30.42 339.585 30.52L331.785 31.69ZM334.635 25.51C333.775 25.51 333.055 25.78 332.475 26.32C331.915 26.84 331.585 27.6 331.485 28.6L337.215 27.67C337.175 27.15 336.945 26.66 336.525 26.2C336.105 25.74 335.475 25.51 334.635 25.51ZM356.023 32.77C356.023 34.25 355.473 35.41 354.373 36.25C353.273 37.07 351.653 37.48 349.513 37.48C348.673 37.48 347.903 37.42 347.203 37.3C346.523 37.18 345.933 37 345.433 36.76C344.933 36.52 344.543 36.22 344.263 35.86C343.983 35.5 343.843 35.08 343.843 34.6C343.843 34.16 343.933 33.79 344.113 33.49C344.293 33.17 344.523 32.91 344.803 32.71C345.383 33.05 346.043 33.35 346.783 33.61C347.523 33.87 348.383 34 349.363 34C350.783 34 351.493 33.6 351.493 32.8C351.493 32.46 351.363 32.2 351.103 32.02C350.863 31.84 350.443 31.68 349.843 31.54L348.643 31.27C347.003 30.93 345.783 30.41 344.983 29.71C344.183 28.99 343.783 27.99 343.783 26.71C343.783 25.29 344.353 24.17 345.493 23.35C346.653 22.51 348.203 22.09 350.143 22.09C350.863 22.09 351.543 22.15 352.183 22.27C352.823 22.37 353.373 22.53 353.833 22.75C354.293 22.97 354.653 23.25 354.913 23.59C355.193 23.91 355.333 24.29 355.333 24.73C355.333 25.13 355.253 25.49 355.093 25.81C354.933 26.11 354.723 26.36 354.463 26.56C354.303 26.46 354.063 26.35 353.743 26.23C353.443 26.11 353.113 26 352.753 25.9C352.393 25.8 352.013 25.72 351.613 25.66C351.213 25.6 350.843 25.57 350.503 25.57C349.803 25.57 349.253 25.67 348.853 25.87C348.473 26.05 348.283 26.33 348.283 26.71C348.283 26.99 348.393 27.21 348.613 27.37C348.833 27.53 349.233 27.68 349.813 27.82L350.953 28.09C352.773 28.49 354.073 29.07 354.853 29.83C355.633 30.59 356.023 31.57 356.023 32.77ZM363.295 32.23C363.295 32.79 363.475 33.2 363.835 33.46C364.195 33.7 364.695 33.82 365.335 33.82C365.635 33.82 365.955 33.79 366.295 33.73C366.635 33.65 366.925 33.56 367.165 33.46C367.345 33.66 367.495 33.89 367.615 34.15C367.735 34.41 367.795 34.71 367.795 35.05C367.795 35.75 367.515 36.33 366.955 36.79C366.415 37.23 365.465 37.45 364.105 37.45C362.425 37.45 361.115 37.07 360.175 36.31C359.235 35.53 358.765 34.27 358.765 32.53V19.06C358.985 19 359.275 18.94 359.635 18.88C359.995 18.8 360.385 18.76 360.805 18.76C361.685 18.76 362.315 18.92 362.695 19.24C363.095 19.54 363.295 20.1 363.295 20.92V22.87H367.435C367.535 23.07 367.635 23.33 367.735 23.65C367.835 23.95 367.885 24.27 367.885 24.61C367.885 25.25 367.735 25.71 367.435 25.99C367.155 26.27 366.785 26.41 366.325 26.41H363.295V32.23Z" fill="black"/>
<path d="M48.3765 24.2582C48.3765 21.8102 47.6507 19.4173 46.2907 17.3819C44.9307 15.3465 42.9977 13.7601 40.7361 12.8234C38.4745 11.8866 35.9859 11.6415 33.585 12.1191C31.1841 12.5966 28.9788 13.7754 27.2478 15.5064C25.5169 17.2373 24.3381 19.4427 23.8605 21.8435C23.3829 24.2444 23.628 26.733 24.5648 28.9946C25.5016 31.2562 27.088 33.1892 29.1234 34.5492C31.1587 35.9092 33.5517 36.6351 35.9996 36.6351C39.281 36.6314 42.427 35.3262 44.7473 33.0059C47.0676 30.6855 48.3728 27.5396 48.3765 24.2582V24.2582ZM26.9388 24.2582C26.9388 22.4661 27.4702 20.7143 28.4658 19.2242C29.4614 17.7342 30.8765 16.5728 32.5322 15.887C34.1878 15.2013 36.0097 15.0218 37.7673 15.3714C39.5249 15.721 41.1394 16.584 42.4066 17.8512C43.6738 19.1184 44.5367 20.7329 44.8863 22.4905C45.236 24.2481 45.0565 26.0699 44.3707 27.7256C43.6849 29.3812 42.5236 30.7963 41.0335 31.792C39.5435 32.7876 37.7917 33.319 35.9996 33.319C33.5974 33.3162 31.2943 32.3607 29.5957 30.6621C27.897 28.9635 26.9415 26.6604 26.9388 24.2582V24.2582Z" fill="black"/>
<path d="M48.8984 49.2027L56.062 40.1328C57.6316 38.3802 58.8613 36.3507 59.6881 34.148C61.1184 30.3201 61.5984 26.2024 61.087 22.1481C60.5757 18.0939 59.0881 14.2243 56.7522 10.8715C54.4291 7.51711 51.3276 4.77582 47.7132 2.88244C44.0989 0.989051 40.0794 0 35.9992 0C31.9189 0 27.8995 0.989051 24.2851 2.88244C20.6708 4.77582 17.5692 7.51711 15.2462 10.8715C12.9109 14.2226 11.4234 18.0902 10.9113 22.1426C10.3992 26.1949 10.8778 30.3109 12.306 34.1377C13.1499 36.3363 14.3795 38.3665 15.9372 40.1328L23.102 49.2035C8.97295 51.1223 0 55.9688 0 61.8329C0 70.5849 18.5482 75.3075 36 75.3075C45.3518 75.3075 54.1677 74.0465 60.8227 71.7563C68.1347 69.2402 72 65.8089 72 61.8329C71.9996 55.9609 63.0333 51.1207 48.8984 49.2027ZM18.4703 37.9935C17.1594 36.5166 16.1236 34.8169 15.412 32.975C14.1717 29.649 13.7569 26.0718 14.2032 22.5502C14.6495 19.0287 15.9437 15.668 17.9745 12.7567C19.9925 9.84366 22.6865 7.46311 25.8257 5.8189C28.9649 4.1747 32.4558 3.31582 35.9996 3.31582C39.5433 3.31582 43.0343 4.1747 46.1735 5.8189C49.3127 7.46311 52.0067 9.84366 54.0247 12.7567C56.0574 15.6728 57.3517 19.0388 57.7961 22.5656C58.2406 26.0924 57.8221 29.6743 56.5764 33.0036C55.8846 34.8443 54.8506 36.5374 53.5289 37.9935C53.5127 38.0117 53.4974 38.0304 53.4825 38.0494L35.9996 60.1827L18.5167 38.0478C18.5018 38.0303 18.4864 38.0117 18.4703 37.9935ZM59.7437 68.6205C53.4265 70.7942 44.9941 71.9914 35.9996 71.9914C27.0051 71.9914 18.5726 70.7942 12.2555 68.6205C6.65956 66.6947 3.31569 64.1571 3.31569 61.8329C3.31569 58.3597 11.0899 53.8664 25.507 52.249L34.6984 63.8852C34.8536 64.0817 35.0513 64.2405 35.2767 64.3496C35.502 64.4588 35.7492 64.5155 35.9996 64.5155C36.25 64.5155 36.4971 64.4588 36.7225 64.3496C36.9478 64.2405 37.1455 64.0817 37.3007 63.8852L46.4926 52.2485C60.911 53.8651 68.6835 58.3506 68.6835 61.8329C68.6835 64.1571 65.3413 66.6947 59.7437 68.6205V68.6205Z" fill="black"/>
</svg>
