<svg width="310" height="87" viewBox="0 0 310 87" fill="none" xmlns="http://www.w3.org/2000/svg">
<path d="M2.394 66.972C2.34733 66.9907 2.27733 67.0093 2.184 67.028C2.09067 67.056 1.988 67.07 1.876 67.07C1.46533 67.07 1.26 66.8973 1.26 66.552V58.516C1.30667 58.4973 1.37667 58.4787 1.47 58.46C1.57267 58.432 1.68 58.418 1.792 58.418C2.19333 58.418 2.394 58.5907 2.394 58.936V66.972ZM9.19406 62.786C9.19406 62.2633 9.04473 61.8807 8.74606 61.638C8.45673 61.3953 8.06473 61.274 7.57006 61.274C7.19673 61.274 6.8654 61.3207 6.57606 61.414C6.28673 61.5073 6.0394 61.6147 5.83406 61.736V66.972C5.7874 66.9907 5.7174 67.0093 5.62406 67.028C5.53073 67.056 5.42806 67.07 5.31606 67.07C4.91473 67.07 4.71406 66.902 4.71406 66.566V61.792C4.71406 61.596 4.7514 61.4373 4.82606 61.316C4.91006 61.1853 5.05006 61.0593 5.24606 60.938C5.48873 60.7887 5.81073 60.6533 6.21206 60.532C6.6134 60.4107 7.06606 60.35 7.57006 60.35C8.4194 60.35 9.08673 60.5413 9.57206 60.924C10.0667 61.3067 10.3141 61.9087 10.3141 62.73V66.972C10.2674 66.9907 10.1927 67.0093 10.0901 67.028C9.99673 67.056 9.89873 67.07 9.79606 67.07C9.39473 67.07 9.19406 66.902 9.19406 66.566V62.786ZM16.9753 65.278C16.9753 65.8753 16.756 66.342 16.3173 66.678C15.8787 67.014 15.244 67.182 14.4133 67.182C14.0587 67.182 13.732 67.1493 13.4333 67.084C13.1347 67.028 12.878 66.9533 12.6633 66.86C12.458 66.7573 12.2947 66.6453 12.1733 66.524C12.0613 66.3933 12.0053 66.2627 12.0053 66.132C12.0053 66.02 12.0333 65.9127 12.0893 65.81C12.1547 65.7073 12.248 65.6187 12.3693 65.544C12.6213 65.7307 12.9153 65.8987 13.2513 66.048C13.5873 66.188 13.97 66.258 14.3993 66.258C15.37 66.258 15.8553 65.9313 15.8553 65.278C15.8553 64.746 15.5333 64.4007 14.8893 64.242L13.7273 63.934C13.158 63.7847 12.7427 63.57 12.4813 63.29C12.22 63.0007 12.0893 62.632 12.0893 62.184C12.0893 61.9413 12.136 61.708 12.2293 61.484C12.332 61.26 12.486 61.064 12.6913 60.896C12.8967 60.728 13.1487 60.5973 13.4473 60.504C13.7553 60.4013 14.1147 60.35 14.5253 60.35C15.1787 60.35 15.706 60.448 16.1073 60.644C16.5087 60.8307 16.7093 61.05 16.7093 61.302C16.7093 61.4233 16.6767 61.5307 16.6113 61.624C16.5553 61.7173 16.476 61.7873 16.3733 61.834C16.2053 61.722 15.9673 61.6007 15.6593 61.47C15.3513 61.3393 14.9873 61.274 14.5673 61.274C14.1473 61.274 13.8113 61.3533 13.5593 61.512C13.3167 61.6707 13.1953 61.8947 13.1953 62.184C13.1953 62.3987 13.2653 62.5807 13.4053 62.73C13.5453 62.8793 13.7787 62.9913 14.1053 63.066L15.0713 63.304C15.706 63.4627 16.182 63.7007 16.4993 64.018C16.8167 64.326 16.9753 64.746 16.9753 65.278ZM20.885 67.182C20.2317 67.182 19.6997 67.0373 19.289 66.748C18.8877 66.4587 18.687 65.978 18.687 65.306V58.656C18.7337 58.6373 18.8037 58.6187 18.897 58.6C18.9997 58.572 19.107 58.558 19.219 58.558C19.611 58.558 19.807 58.726 19.807 59.062V60.672H22.103C22.131 60.7187 22.159 60.784 22.187 60.868C22.215 60.9427 22.229 61.0267 22.229 61.12C22.229 61.4373 22.089 61.596 21.809 61.596H19.807V65.236C19.807 65.6093 19.9097 65.8753 20.115 66.034C20.3297 66.1833 20.6284 66.258 21.011 66.258C21.1697 66.258 21.347 66.23 21.543 66.174C21.739 66.118 21.9024 66.0527 22.033 65.978C22.089 66.034 22.1404 66.104 22.187 66.188C22.2337 66.272 22.257 66.37 22.257 66.482C22.257 66.6873 22.1357 66.8553 21.893 66.986C21.6504 67.1167 21.3144 67.182 20.885 67.182ZM24.475 64.424C24.727 65.6467 25.5296 66.258 26.883 66.258C27.275 66.258 27.6296 66.1927 27.947 66.062C28.2643 65.9313 28.5163 65.7913 28.703 65.642C28.927 65.7727 29.039 65.95 29.039 66.174C29.039 66.3047 28.9783 66.4307 28.857 66.552C28.745 66.6733 28.5863 66.7807 28.381 66.874C28.185 66.9673 27.9516 67.042 27.681 67.098C27.4196 67.154 27.135 67.182 26.827 67.182C25.7443 67.182 24.8856 66.888 24.251 66.3C23.6256 65.712 23.313 64.8533 23.313 63.724C23.313 63.192 23.3876 62.7207 23.537 62.31C23.6956 61.89 23.9103 61.5353 24.181 61.246C24.461 60.9567 24.7923 60.7373 25.175 60.588C25.5576 60.4293 25.973 60.35 26.421 60.35C26.841 60.35 27.2283 60.42 27.583 60.56C27.9376 60.7 28.241 60.9007 28.493 61.162C28.7543 61.414 28.955 61.7173 29.095 62.072C29.2443 62.4173 29.319 62.8 29.319 63.22C29.319 63.4253 29.2723 63.5747 29.179 63.668C29.0856 63.752 28.955 63.8033 28.787 63.822L24.475 64.424ZM26.407 61.26C25.8376 61.26 25.3663 61.4607 24.993 61.862C24.6196 62.254 24.4236 62.8187 24.405 63.556L28.255 63.024C28.2083 62.5107 28.0263 62.0907 27.709 61.764C27.401 61.428 26.967 61.26 26.407 61.26ZM33.2467 66.272C33.6387 66.272 33.9607 66.2347 34.2127 66.16C34.4741 66.076 34.6607 65.9967 34.7727 65.922V63.892L33.0367 64.074C32.5514 64.1207 32.1921 64.2327 31.9587 64.41C31.7254 64.578 31.6087 64.83 31.6087 65.166C31.6087 65.5207 31.7441 65.796 32.0147 65.992C32.2854 66.1787 32.6961 66.272 33.2467 66.272ZM33.2327 60.35C34.0447 60.35 34.6887 60.532 35.1647 60.896C35.6407 61.26 35.8787 61.834 35.8787 62.618V65.936C35.8787 66.1413 35.8367 66.3 35.7527 66.412C35.6781 66.5147 35.5614 66.6127 35.4027 66.706C35.1787 66.8367 34.8801 66.9487 34.5067 67.042C34.1427 67.1447 33.7227 67.196 33.2467 67.196C32.3694 67.196 31.6881 67.0233 31.2027 66.678C30.7267 66.3327 30.4887 65.8333 30.4887 65.18C30.4887 64.564 30.6894 64.102 31.0907 63.794C31.4921 63.4767 32.0567 63.2807 32.7847 63.206L34.7727 63.01V62.618C34.7727 62.1513 34.6327 61.8107 34.3527 61.596C34.0727 61.3813 33.6947 61.274 33.2187 61.274C32.8267 61.274 32.4581 61.33 32.1127 61.442C31.7674 61.554 31.4594 61.68 31.1887 61.82C31.1141 61.7547 31.0441 61.68 30.9787 61.596C30.9227 61.512 30.8947 61.4187 30.8947 61.316C30.8947 61.1853 30.9274 61.078 30.9927 60.994C31.0581 60.91 31.1607 60.8307 31.3007 60.756C31.5527 60.6253 31.8421 60.5273 32.1687 60.462C32.4954 60.3873 32.8501 60.35 33.2327 60.35ZM43.453 65.936C43.453 66.1227 43.411 66.2673 43.327 66.37C43.2524 66.4727 43.131 66.5753 42.963 66.678C42.7764 66.7993 42.5104 66.9113 42.165 67.014C41.8197 67.126 41.423 67.182 40.975 67.182C40.471 67.182 40.009 67.1167 39.589 66.986C39.169 66.8553 38.805 66.6547 38.497 66.384C38.1984 66.104 37.965 65.754 37.797 65.334C37.6384 64.9047 37.559 64.3913 37.559 63.794C37.559 63.1873 37.643 62.6693 37.811 62.24C37.979 61.8013 38.203 61.442 38.483 61.162C38.7724 60.882 39.1084 60.6767 39.491 60.546C39.883 60.4153 40.2984 60.35 40.737 60.35C41.0357 60.35 41.325 60.3873 41.605 60.462C41.885 60.5367 42.1277 60.63 42.333 60.742V57.928C42.3797 57.9093 42.4497 57.8907 42.543 57.872C42.6457 57.844 42.7484 57.83 42.851 57.83C43.2524 57.83 43.453 57.998 43.453 58.334V65.936ZM42.333 61.75C42.1464 61.6193 41.9317 61.5073 41.689 61.414C41.4464 61.3207 41.1664 61.274 40.849 61.274C40.5597 61.274 40.2844 61.3207 40.023 61.414C39.771 61.498 39.547 61.6427 39.351 61.848C39.155 62.044 38.9964 62.3053 38.875 62.632C38.763 62.9587 38.707 63.3553 38.707 63.822C38.707 64.6807 38.9124 65.3013 39.323 65.684C39.7337 66.0667 40.2797 66.258 40.961 66.258C41.2877 66.258 41.5537 66.2253 41.759 66.16C41.9737 66.0853 42.165 65.9967 42.333 65.894V61.75ZM54.388 63.766C54.388 64.2887 54.3134 64.76 54.164 65.18C54.0147 65.6 53.8 65.9593 53.52 66.258C53.2494 66.5567 52.918 66.7853 52.526 66.944C52.134 67.1027 51.6954 67.182 51.21 67.182C50.7247 67.182 50.286 67.1027 49.894 66.944C49.502 66.7853 49.166 66.5567 48.886 66.258C48.606 65.9593 48.3914 65.6 48.242 65.18C48.0927 64.76 48.018 64.2887 48.018 63.766C48.018 63.2433 48.0927 62.772 48.242 62.352C48.4007 61.932 48.62 61.5727 48.9 61.274C49.18 60.9753 49.516 60.7467 49.908 60.588C50.3 60.4293 50.734 60.35 51.21 60.35C51.686 60.35 52.12 60.4293 52.512 60.588C52.904 60.7467 53.2354 60.9753 53.506 61.274C53.786 61.5727 54.0007 61.932 54.15 62.352C54.3087 62.772 54.388 63.2433 54.388 63.766ZM51.21 61.274C50.5754 61.274 50.076 61.4933 49.712 61.932C49.348 62.3707 49.166 62.982 49.166 63.766C49.166 64.5593 49.3434 65.1753 49.698 65.614C50.062 66.0433 50.566 66.258 51.21 66.258C51.854 66.258 52.3534 66.0387 52.708 65.6C53.0627 65.1613 53.24 64.55 53.24 63.766C53.24 62.982 53.058 62.3707 52.694 61.932C52.3394 61.4933 51.8447 61.274 51.21 61.274ZM57.2543 60.896H60.0263C60.0543 60.9427 60.0823 61.0033 60.1103 61.078C60.1383 61.1527 60.1523 61.2413 60.1523 61.344C60.1523 61.652 60.0076 61.806 59.7183 61.806H57.2683V66.972C57.2216 66.9907 57.1516 67.0093 57.0583 67.028C56.965 67.056 56.8623 67.07 56.7503 67.07C56.349 67.07 56.1483 66.902 56.1483 66.566V59.958C56.1483 59.1367 56.3676 58.544 56.8063 58.18C57.2543 57.8067 57.875 57.62 58.6683 57.62C59.2003 57.62 59.6156 57.69 59.9143 57.83C60.2223 57.97 60.3763 58.1427 60.3763 58.348C60.3763 58.5533 60.297 58.726 60.1383 58.866C59.9703 58.7727 59.7603 58.698 59.5083 58.642C59.2563 58.5767 59.0136 58.544 58.7803 58.544C58.211 58.544 57.8143 58.6607 57.5903 58.894C57.3663 59.1273 57.2543 59.5007 57.2543 60.014V60.896ZM69.0788 65.278C69.0788 65.8753 68.8595 66.342 68.4208 66.678C67.9822 67.014 67.3475 67.182 66.5168 67.182C66.1622 67.182 65.8355 67.1493 65.5368 67.084C65.2382 67.028 64.9815 66.9533 64.7668 66.86C64.5615 66.7573 64.3982 66.6453 64.2768 66.524C64.1648 66.3933 64.1088 66.2627 64.1088 66.132C64.1088 66.02 64.1368 65.9127 64.1928 65.81C64.2582 65.7073 64.3515 65.6187 64.4728 65.544C64.7248 65.7307 65.0188 65.8987 65.3548 66.048C65.6908 66.188 66.0735 66.258 66.5028 66.258C67.4735 66.258 67.9588 65.9313 67.9588 65.278C67.9588 64.746 67.6368 64.4007 66.9928 64.242L65.8308 63.934C65.2615 63.7847 64.8462 63.57 64.5848 63.29C64.3235 63.0007 64.1928 62.632 64.1928 62.184C64.1928 61.9413 64.2395 61.708 64.3328 61.484C64.4355 61.26 64.5895 61.064 64.7948 60.896C65.0002 60.728 65.2522 60.5973 65.5508 60.504C65.8588 60.4013 66.2182 60.35 66.6288 60.35C67.2822 60.35 67.8095 60.448 68.2108 60.644C68.6122 60.8307 68.8128 61.05 68.8128 61.302C68.8128 61.4233 68.7802 61.5307 68.7148 61.624C68.6588 61.7173 68.5795 61.7873 68.4768 61.834C68.3088 61.722 68.0708 61.6007 67.7628 61.47C67.4548 61.3393 67.0908 61.274 66.6708 61.274C66.2508 61.274 65.9148 61.3533 65.6628 61.512C65.4202 61.6707 65.2988 61.8947 65.2988 62.184C65.2988 62.3987 65.3688 62.5807 65.5088 62.73C65.6488 62.8793 65.8822 62.9913 66.2088 63.066L67.1748 63.304C67.8095 63.4627 68.2855 63.7007 68.6028 64.018C68.9202 64.326 69.0788 64.746 69.0788 65.278ZM73.5346 67.182C73.2079 67.182 72.8999 67.1447 72.6106 67.07C72.3212 66.9953 72.0832 66.9067 71.8966 66.804V69.52C71.8499 69.5387 71.7799 69.5573 71.6866 69.576C71.5932 69.604 71.4906 69.618 71.3786 69.618C70.9772 69.618 70.7766 69.4453 70.7766 69.1V61.708C70.7766 61.5213 70.8092 61.372 70.8746 61.26C70.9399 61.148 71.0752 61.0313 71.2806 60.91C71.5326 60.77 71.8312 60.644 72.1766 60.532C72.5312 60.4107 72.9326 60.35 73.3806 60.35C73.8379 60.35 74.2672 60.4153 74.6686 60.546C75.0792 60.6767 75.4292 60.882 75.7186 61.162C76.0172 61.4327 76.2506 61.7827 76.4186 62.212C76.5959 62.6413 76.6846 63.1547 76.6846 63.752C76.6846 64.3307 76.6052 64.8347 76.4466 65.264C76.2972 65.6933 76.0826 66.0527 75.8026 66.342C75.5226 66.622 75.1866 66.832 74.7946 66.972C74.4119 67.112 73.9919 67.182 73.5346 67.182ZM73.3806 66.258C74.0339 66.258 74.5566 66.062 74.9486 65.67C75.3499 65.2687 75.5506 64.6293 75.5506 63.752C75.5506 63.2947 75.4899 62.9073 75.3686 62.59C75.2566 62.2727 75.0979 62.016 74.8926 61.82C74.6966 61.624 74.4679 61.484 74.2066 61.4C73.9452 61.316 73.6699 61.274 73.3806 61.274C73.0446 61.274 72.7599 61.316 72.5266 61.4C72.2932 61.484 72.0832 61.5773 71.8966 61.68V65.81C72.0739 65.9407 72.2839 66.048 72.5266 66.132C72.7692 66.216 73.0539 66.258 73.3806 66.258ZM79.5391 66.972C79.4925 66.9907 79.4225 67.0093 79.3291 67.028C79.2358 67.056 79.1331 67.07 79.0211 67.07C78.6198 67.07 78.4191 66.902 78.4191 66.566V61.82C78.4191 61.6053 78.4565 61.4373 78.5311 61.316C78.6151 61.1853 78.7505 61.0593 78.9371 60.938C79.1798 60.7793 79.5065 60.644 79.9171 60.532C80.3371 60.4107 80.8085 60.35 81.3311 60.35C82.0778 60.35 82.4511 60.5367 82.4511 60.91C82.4511 61.0033 82.4371 61.092 82.4091 61.176C82.3811 61.2507 82.3438 61.316 82.2971 61.372C82.2038 61.3533 82.0825 61.3347 81.9331 61.316C81.7838 61.2973 81.6345 61.288 81.4851 61.288C81.0558 61.288 80.6778 61.3347 80.3511 61.428C80.0245 61.512 79.7538 61.6147 79.5391 61.736V66.972ZM84.4261 64.424C84.6781 65.6467 85.4808 66.258 86.8341 66.258C87.2261 66.258 87.5808 66.1927 87.8981 66.062C88.2155 65.9313 88.4675 65.7913 88.6541 65.642C88.8781 65.7727 88.9901 65.95 88.9901 66.174C88.9901 66.3047 88.9295 66.4307 88.8081 66.552C88.6961 66.6733 88.5375 66.7807 88.3321 66.874C88.1361 66.9673 87.9028 67.042 87.6321 67.098C87.3708 67.154 87.0861 67.182 86.7781 67.182C85.6955 67.182 84.8368 66.888 84.2021 66.3C83.5768 65.712 83.2641 64.8533 83.2641 63.724C83.2641 63.192 83.3388 62.7207 83.4881 62.31C83.6468 61.89 83.8615 61.5353 84.1321 61.246C84.4121 60.9567 84.7435 60.7373 85.1261 60.588C85.5088 60.4293 85.9241 60.35 86.3721 60.35C86.7921 60.35 87.1795 60.42 87.5341 60.56C87.8888 60.7 88.1921 60.9007 88.4441 61.162C88.7055 61.414 88.9061 61.7173 89.0461 62.072C89.1955 62.4173 89.2701 62.8 89.2701 63.22C89.2701 63.4253 89.2235 63.5747 89.1301 63.668C89.0368 63.752 88.9061 63.8033 88.7381 63.822L84.4261 64.424ZM86.3581 61.26C85.7888 61.26 85.3175 61.4607 84.9441 61.862C84.5708 62.254 84.3748 62.8187 84.3561 63.556L88.2061 63.024C88.1595 62.5107 87.9775 62.0907 87.6601 61.764C87.3521 61.428 86.9181 61.26 86.3581 61.26ZM93.1979 66.272C93.5899 66.272 93.9119 66.2347 94.1639 66.16C94.4252 66.076 94.6119 65.9967 94.7239 65.922V63.892L92.9879 64.074C92.5026 64.1207 92.1432 64.2327 91.9099 64.41C91.6766 64.578 91.5599 64.83 91.5599 65.166C91.5599 65.5207 91.6952 65.796 91.9659 65.992C92.2366 66.1787 92.6472 66.272 93.1979 66.272ZM93.1839 60.35C93.9959 60.35 94.6399 60.532 95.1159 60.896C95.5919 61.26 95.8299 61.834 95.8299 62.618V65.936C95.8299 66.1413 95.7879 66.3 95.7039 66.412C95.6292 66.5147 95.5126 66.6127 95.3539 66.706C95.1299 66.8367 94.8312 66.9487 94.4579 67.042C94.0939 67.1447 93.6739 67.196 93.1979 67.196C92.3206 67.196 91.6392 67.0233 91.1539 66.678C90.6779 66.3327 90.4399 65.8333 90.4399 65.18C90.4399 64.564 90.6406 64.102 91.0419 63.794C91.4432 63.4767 92.0079 63.2807 92.7359 63.206L94.7239 63.01V62.618C94.7239 62.1513 94.5839 61.8107 94.3039 61.596C94.0239 61.3813 93.6459 61.274 93.1699 61.274C92.7779 61.274 92.4092 61.33 92.0639 61.442C91.7186 61.554 91.4106 61.68 91.1399 61.82C91.0652 61.7547 90.9952 61.68 90.9299 61.596C90.8739 61.512 90.8459 61.4187 90.8459 61.316C90.8459 61.1853 90.8786 61.078 90.9439 60.994C91.0092 60.91 91.1119 60.8307 91.2519 60.756C91.5039 60.6253 91.7932 60.5273 92.1199 60.462C92.4466 60.3873 92.8012 60.35 93.1839 60.35ZM103.404 65.936C103.404 66.1227 103.362 66.2673 103.278 66.37C103.204 66.4727 103.082 66.5753 102.914 66.678C102.728 66.7993 102.462 66.9113 102.116 67.014C101.771 67.126 101.374 67.182 100.926 67.182C100.422 67.182 99.9602 67.1167 99.5402 66.986C99.1202 66.8553 98.7562 66.6547 98.4482 66.384C98.1496 66.104 97.9162 65.754 97.7482 65.334C97.5896 64.9047 97.5102 64.3913 97.5102 63.794C97.5102 63.1873 97.5942 62.6693 97.7622 62.24C97.9302 61.8013 98.1542 61.442 98.4342 61.162C98.7236 60.882 99.0596 60.6767 99.4422 60.546C99.8342 60.4153 100.25 60.35 100.688 60.35C100.987 60.35 101.276 60.3873 101.556 60.462C101.836 60.5367 102.079 60.63 102.284 60.742V57.928C102.331 57.9093 102.401 57.8907 102.494 57.872C102.597 57.844 102.7 57.83 102.802 57.83C103.204 57.83 103.404 57.998 103.404 58.334V65.936ZM102.284 61.75C102.098 61.6193 101.883 61.5073 101.64 61.414C101.398 61.3207 101.118 61.274 100.8 61.274C100.511 61.274 100.236 61.3207 99.9742 61.414C99.7222 61.498 99.4982 61.6427 99.3022 61.848C99.1062 62.044 98.9476 62.3053 98.8262 62.632C98.7142 62.9587 98.6582 63.3553 98.6582 63.822C98.6582 64.6807 98.8636 65.3013 99.2742 65.684C99.6849 66.0667 100.231 66.258 100.912 66.258C101.239 66.258 101.505 66.2253 101.71 66.16C101.925 66.0853 102.116 65.9967 102.284 65.894V61.75ZM106.72 66.972C106.674 66.9907 106.604 67.0093 106.51 67.028C106.417 67.056 106.314 67.07 106.202 67.07C105.801 67.07 105.6 66.902 105.6 66.566V60.56C105.647 60.5413 105.717 60.5227 105.81 60.504C105.913 60.476 106.02 60.462 106.132 60.462C106.524 60.462 106.72 60.6347 106.72 60.98V66.972ZM105.432 58.488C105.432 58.292 105.498 58.1287 105.628 57.998C105.768 57.858 105.946 57.788 106.16 57.788C106.375 57.788 106.548 57.858 106.678 57.998C106.809 58.1287 106.874 58.292 106.874 58.488C106.874 58.684 106.809 58.852 106.678 58.992C106.548 59.1227 106.375 59.188 106.16 59.188C105.946 59.188 105.768 59.1227 105.628 58.992C105.498 58.852 105.432 58.684 105.432 58.488ZM113.387 62.786C113.387 62.2633 113.238 61.8807 112.939 61.638C112.65 61.3953 112.258 61.274 111.763 61.274C111.39 61.274 111.059 61.3207 110.769 61.414C110.48 61.5073 110.233 61.6147 110.027 61.736V66.972C109.981 66.9907 109.911 67.0093 109.817 67.028C109.724 67.056 109.621 67.07 109.509 67.07C109.108 67.07 108.907 66.902 108.907 66.566V61.792C108.907 61.596 108.945 61.4373 109.019 61.316C109.103 61.1853 109.243 61.0593 109.439 60.938C109.682 60.7887 110.004 60.6533 110.405 60.532C110.807 60.4107 111.259 60.35 111.763 60.35C112.613 60.35 113.28 60.5413 113.765 60.924C114.26 61.3067 114.507 61.9087 114.507 62.73V66.972C114.461 66.9907 114.386 67.0093 114.283 67.028C114.19 67.056 114.092 67.07 113.989 67.07C113.588 67.07 113.387 66.902 113.387 66.566V62.786ZM120.931 66.328C120.772 66.4587 120.553 66.5707 120.273 66.664C120.002 66.7573 119.675 66.804 119.293 66.804C118.882 66.804 118.495 66.748 118.131 66.636C117.767 66.5147 117.445 66.328 117.165 66.076C116.894 65.8147 116.675 65.4787 116.507 65.068C116.348 64.6573 116.269 64.158 116.269 63.57C116.269 63.038 116.348 62.5713 116.507 62.17C116.665 61.7687 116.885 61.4327 117.165 61.162C117.454 60.8913 117.795 60.6907 118.187 60.56C118.579 60.42 119.013 60.35 119.489 60.35C119.918 60.35 120.31 60.406 120.665 60.518C121.029 60.6207 121.332 60.7513 121.575 60.91C121.715 61.0033 121.827 61.1107 121.911 61.232C122.004 61.344 122.051 61.484 122.051 61.652V67.28C122.051 67.7467 121.971 68.1387 121.813 68.456C121.663 68.7827 121.449 69.044 121.169 69.24C120.898 69.4453 120.576 69.5947 120.203 69.688C119.829 69.7813 119.428 69.828 118.999 69.828C118.523 69.828 118.117 69.7767 117.781 69.674C117.454 69.5807 117.23 69.4967 117.109 69.422C116.829 69.2633 116.689 69.0627 116.689 68.82C116.689 68.6893 116.717 68.5773 116.773 68.484C116.838 68.4 116.917 68.3347 117.011 68.288C117.207 68.4373 117.482 68.5727 117.837 68.694C118.191 68.8247 118.579 68.89 118.999 68.89C119.624 68.89 120.1 68.7547 120.427 68.484C120.763 68.2227 120.931 67.798 120.931 67.21V66.328ZM119.419 65.88C119.792 65.88 120.095 65.824 120.329 65.712C120.571 65.5907 120.772 65.4553 120.931 65.306V61.666C120.772 61.5633 120.571 61.4747 120.329 61.4C120.095 61.316 119.815 61.274 119.489 61.274C118.854 61.274 118.345 61.4653 117.963 61.848C117.589 62.2307 117.403 62.8 117.403 63.556C117.403 63.976 117.454 64.3353 117.557 64.634C117.659 64.9233 117.799 65.1613 117.977 65.348C118.163 65.5347 118.378 65.67 118.621 65.754C118.873 65.838 119.139 65.88 119.419 65.88ZM133.339 59.426C133.339 59.5567 133.297 59.6687 133.213 59.762C133.138 59.8553 133.05 59.9253 132.947 59.972C132.704 59.804 132.42 59.6453 132.093 59.496C131.766 59.3467 131.342 59.272 130.819 59.272C130.39 59.272 129.993 59.3467 129.629 59.496C129.265 59.6453 128.948 59.8647 128.677 60.154C128.406 60.4433 128.192 60.8073 128.033 61.246C127.884 61.6847 127.809 62.1887 127.809 62.758C127.809 63.3367 127.884 63.8407 128.033 64.27C128.182 64.6993 128.388 65.0587 128.649 65.348C128.92 65.6373 129.242 65.8567 129.615 66.006C129.988 66.146 130.404 66.216 130.861 66.216C131.346 66.216 131.766 66.1507 132.121 66.02C132.485 65.88 132.788 65.7167 133.031 65.53C133.124 65.5673 133.213 65.6373 133.297 65.74C133.381 65.8333 133.423 65.9453 133.423 66.076C133.423 66.272 133.311 66.4493 133.087 66.608C132.872 66.7573 132.578 66.888 132.205 67C131.832 67.1213 131.356 67.182 130.777 67.182C130.189 67.182 129.643 67.0887 129.139 66.902C128.635 66.7153 128.196 66.44 127.823 66.076C127.459 65.7027 127.17 65.2407 126.955 64.69C126.74 64.1393 126.633 63.4953 126.633 62.758C126.633 62.0207 126.74 61.3767 126.955 60.826C127.179 60.266 127.478 59.7993 127.851 59.426C128.224 59.0527 128.658 58.7727 129.153 58.586C129.657 58.3993 130.184 58.306 130.735 58.306C131.118 58.306 131.468 58.3387 131.785 58.404C132.112 58.4693 132.387 58.558 132.611 58.67C132.844 58.7727 133.022 58.894 133.143 59.034C133.274 59.1647 133.339 59.2953 133.339 59.426ZM142.847 62.744C142.847 63.472 142.744 64.116 142.539 64.676C142.333 65.2267 142.049 65.6887 141.685 66.062C141.321 66.426 140.891 66.706 140.397 66.902C139.902 67.0887 139.365 67.182 138.787 67.182C138.208 67.182 137.671 67.0887 137.177 66.902C136.682 66.706 136.253 66.426 135.889 66.062C135.525 65.6887 135.24 65.2267 135.035 64.676C134.829 64.116 134.727 63.472 134.727 62.744C134.727 62.016 134.829 61.3767 135.035 60.826C135.249 60.2753 135.539 59.8133 135.903 59.44C136.267 59.0667 136.696 58.7867 137.191 58.6C137.685 58.404 138.217 58.306 138.787 58.306C139.356 58.306 139.888 58.404 140.383 58.6C140.877 58.7867 141.307 59.0667 141.671 59.44C142.035 59.8133 142.319 60.2753 142.525 60.826C142.739 61.3767 142.847 62.016 142.847 62.744ZM141.685 62.744C141.685 61.624 141.419 60.7653 140.887 60.168C140.364 59.5707 139.664 59.272 138.787 59.272C138.348 59.272 137.951 59.3513 137.597 59.51C137.242 59.6593 136.939 59.8833 136.687 60.182C136.435 60.4713 136.239 60.8307 136.099 61.26C135.968 61.6893 135.903 62.184 135.903 62.744C135.903 63.864 136.164 64.7227 136.687 65.32C137.209 65.9173 137.909 66.216 138.787 66.216C139.673 66.216 140.378 65.9173 140.901 65.32C141.423 64.7227 141.685 63.864 141.685 62.744ZM148.317 66.888C148.27 66.9347 148.182 66.9767 148.051 67.014C147.92 67.0513 147.776 67.07 147.617 67.07C147.44 67.07 147.281 67.0467 147.141 67C147.001 66.944 146.908 66.8647 146.861 66.762C146.74 66.5193 146.595 66.2067 146.427 65.824C146.268 65.4413 146.096 65.0167 145.909 64.55C145.732 64.074 145.545 63.5747 145.349 63.052C145.162 62.5293 144.98 62.0113 144.803 61.498C144.626 60.9847 144.458 60.49 144.299 60.014C144.14 59.5287 144.005 59.0947 143.893 58.712C143.949 58.6373 144.033 58.5673 144.145 58.502C144.257 58.4367 144.383 58.404 144.523 58.404C144.7 58.404 144.831 58.446 144.915 58.53C144.999 58.614 145.069 58.74 145.125 58.908C145.545 60.1307 145.946 61.3113 146.329 62.45C146.712 63.5887 147.132 64.746 147.589 65.922H147.645C147.85 65.39 148.06 64.8253 148.275 64.228C148.499 63.6213 148.714 63.0007 148.919 62.366C149.134 61.722 149.339 61.0733 149.535 60.42C149.74 59.7667 149.922 59.1273 150.081 58.502C150.202 58.4367 150.361 58.404 150.557 58.404C150.725 58.404 150.86 58.446 150.963 58.53C151.066 58.614 151.117 58.74 151.117 58.908C151.117 59.048 151.061 59.314 150.949 59.706C150.846 60.0887 150.711 60.5367 150.543 61.05C150.375 61.5633 150.184 62.114 149.969 62.702C149.764 63.29 149.558 63.8547 149.353 64.396C149.148 64.9373 148.952 65.432 148.765 65.88C148.578 66.328 148.429 66.664 148.317 66.888ZM154.015 66.972C153.968 66.9907 153.898 67.0093 153.805 67.028C153.712 67.056 153.609 67.07 153.497 67.07C153.086 67.07 152.881 66.8973 152.881 66.552V58.516C152.928 58.4973 152.998 58.4787 153.091 58.46C153.194 58.432 153.301 58.418 153.413 58.418C153.814 58.418 154.015 58.5907 154.015 58.936V66.972ZM162.495 62.646C162.495 62.0487 162.402 61.54 162.215 61.12C162.038 60.6907 161.79 60.3407 161.473 60.07C161.165 59.7993 160.801 59.6033 160.381 59.482C159.97 59.3513 159.527 59.286 159.051 59.286C158.752 59.286 158.491 59.2953 158.267 59.314C158.052 59.3327 157.852 59.3607 157.665 59.398V66.062C157.889 66.118 158.127 66.1553 158.379 66.174C158.64 66.1927 158.906 66.202 159.177 66.202C160.278 66.202 161.104 65.9033 161.655 65.306C162.215 64.7087 162.495 63.822 162.495 62.646ZM163.657 62.646C163.657 63.4113 163.55 64.0787 163.335 64.648C163.13 65.208 162.831 65.6747 162.439 66.048C162.056 66.4213 161.59 66.7013 161.039 66.888C160.488 67.0653 159.872 67.154 159.191 67.154C158.892 67.154 158.556 67.14 158.183 67.112C157.81 67.0933 157.455 67.0327 157.119 66.93C156.727 66.8087 156.531 66.594 156.531 66.286V59.09C156.531 58.9407 156.568 58.8287 156.643 58.754C156.718 58.67 156.834 58.6047 156.993 58.558C157.282 58.4647 157.609 58.404 157.973 58.376C158.337 58.348 158.701 58.334 159.065 58.334C159.746 58.334 160.367 58.4273 160.927 58.614C161.496 58.7913 161.982 59.062 162.383 59.426C162.784 59.7807 163.097 60.2287 163.321 60.77C163.545 61.302 163.657 61.9273 163.657 62.646ZM165.272 63.808C165.244 63.7427 165.221 63.6773 165.202 63.612C165.183 63.5373 165.174 63.4533 165.174 63.36C165.174 63.0427 165.337 62.884 165.664 62.884H169.01C169.029 62.94 169.047 63.0053 169.066 63.08C169.094 63.1547 169.108 63.234 169.108 63.318C169.108 63.6447 168.945 63.808 168.618 63.808H165.272ZM170.216 60.42C170.095 60.3733 169.992 60.3033 169.908 60.21C169.833 60.1167 169.796 60 169.796 59.86C169.796 59.7107 169.833 59.5893 169.908 59.496C169.983 59.4027 170.113 59.3187 170.3 59.244L172.26 58.39H172.526C172.713 58.39 172.862 58.446 172.974 58.558C173.086 58.67 173.142 58.8193 173.142 59.006V67.014C173.086 67.0327 173.011 67.0513 172.918 67.07C172.825 67.098 172.722 67.112 172.61 67.112C172.209 67.112 172.008 66.9393 172.008 66.594V59.58L170.216 60.42ZM175.82 66.314C175.82 66.202 175.848 66.0947 175.904 65.992C175.969 65.8893 176.049 65.8147 176.142 65.768C176.319 65.8707 176.548 65.9733 176.828 66.076C177.117 66.1693 177.458 66.216 177.85 66.216C178.214 66.216 178.555 66.16 178.872 66.048C179.199 65.936 179.483 65.754 179.726 65.502C179.969 65.25 180.16 64.9233 180.3 64.522C180.44 64.1113 180.51 63.612 180.51 63.024C180.445 63.0987 180.351 63.1873 180.23 63.29C180.109 63.3833 179.955 63.4767 179.768 63.57C179.591 63.654 179.385 63.7287 179.152 63.794C178.919 63.85 178.657 63.878 178.368 63.878C177.976 63.878 177.598 63.8267 177.234 63.724C176.87 63.6213 176.553 63.4627 176.282 63.248C176.011 63.0333 175.792 62.7533 175.624 62.408C175.465 62.0627 175.386 61.6427 175.386 61.148C175.386 60.7093 175.461 60.3173 175.61 59.972C175.769 59.6173 175.979 59.3187 176.24 59.076C176.511 58.8333 176.823 58.6467 177.178 58.516C177.542 58.3853 177.929 58.32 178.34 58.32C178.816 58.32 179.255 58.404 179.656 58.572C180.067 58.7307 180.417 58.9827 180.706 59.328C181.005 59.664 181.233 60.0933 181.392 60.616C181.56 61.1387 181.644 61.7593 181.644 62.478C181.644 63.3367 181.551 64.0647 181.364 64.662C181.187 65.2593 180.93 65.7447 180.594 66.118C180.267 66.4913 179.871 66.762 179.404 66.93C178.937 67.098 178.424 67.182 177.864 67.182C177.584 67.182 177.318 67.1633 177.066 67.126C176.823 67.0887 176.609 67.0327 176.422 66.958C176.235 66.8833 176.086 66.7947 175.974 66.692C175.871 66.58 175.82 66.454 175.82 66.314ZM178.522 62.94C178.755 62.94 178.975 62.912 179.18 62.856C179.395 62.7907 179.591 62.7067 179.768 62.604C179.945 62.492 180.095 62.3707 180.216 62.24C180.347 62.1 180.445 61.96 180.51 61.82C180.491 61.0267 180.291 60.4013 179.908 59.944C179.535 59.4867 179.012 59.258 178.34 59.258C177.817 59.258 177.383 59.4213 177.038 59.748C176.693 60.0747 176.52 60.532 176.52 61.12C176.52 61.4467 176.571 61.7267 176.674 61.96C176.777 62.184 176.917 62.3707 177.094 62.52C177.281 62.66 177.495 62.7673 177.738 62.842C177.981 62.9073 178.242 62.94 178.522 62.94ZM187.439 66.972C187.393 66.9907 187.323 67.0093 187.229 67.028C187.136 67.056 187.033 67.07 186.921 67.07C186.52 67.07 186.319 66.902 186.319 66.566V60.56C186.366 60.5413 186.436 60.5227 186.529 60.504C186.632 60.476 186.739 60.462 186.851 60.462C187.243 60.462 187.439 60.6347 187.439 60.98V66.972ZM186.151 58.488C186.151 58.292 186.217 58.1287 186.347 57.998C186.487 57.858 186.665 57.788 186.879 57.788C187.094 57.788 187.267 57.858 187.397 57.998C187.528 58.1287 187.593 58.292 187.593 58.488C187.593 58.684 187.528 58.852 187.397 58.992C187.267 59.1227 187.094 59.188 186.879 59.188C186.665 59.188 186.487 59.1227 186.347 58.992C186.217 58.852 186.151 58.684 186.151 58.488ZM194.106 62.786C194.106 62.2633 193.957 61.8807 193.658 61.638C193.369 61.3953 192.977 61.274 192.482 61.274C192.109 61.274 191.778 61.3207 191.488 61.414C191.199 61.5073 190.952 61.6147 190.746 61.736V66.972C190.7 66.9907 190.63 67.0093 190.536 67.028C190.443 67.056 190.34 67.07 190.228 67.07C189.827 67.07 189.626 66.902 189.626 66.566V61.792C189.626 61.596 189.664 61.4373 189.738 61.316C189.822 61.1853 189.962 61.0593 190.158 60.938C190.401 60.7887 190.723 60.6533 191.124 60.532C191.526 60.4107 191.978 60.35 192.482 60.35C193.332 60.35 193.999 60.5413 194.484 60.924C194.979 61.3067 195.226 61.9087 195.226 62.73V66.972C195.18 66.9907 195.105 67.0093 195.002 67.028C194.909 67.056 194.811 67.07 194.708 67.07C194.307 67.07 194.106 66.902 194.106 66.566V62.786ZM205.068 64.732H201.316C201.251 64.9187 201.181 65.124 201.106 65.348C201.032 65.5627 200.957 65.7773 200.882 65.992C200.817 66.1973 200.752 66.3933 200.686 66.58C200.621 66.7573 200.57 66.9067 200.532 67.028C200.402 67.084 200.248 67.112 200.07 67.112C199.921 67.112 199.786 67.0747 199.664 67C199.552 66.916 199.496 66.7853 199.496 66.608C199.496 66.524 199.51 66.44 199.538 66.356C199.566 66.2627 199.599 66.1647 199.636 66.062C199.776 65.67 199.954 65.166 200.168 64.55C200.392 63.934 200.63 63.2807 200.882 62.59C201.144 61.89 201.405 61.19 201.666 60.49C201.937 59.7807 202.184 59.146 202.408 58.586C202.483 58.5487 202.595 58.5113 202.744 58.474C202.894 58.4367 203.048 58.418 203.206 58.418C203.393 58.418 203.57 58.446 203.738 58.502C203.916 58.558 204.028 58.6513 204.074 58.782C204.298 59.3233 204.536 59.944 204.788 60.644C205.05 61.3347 205.311 62.044 205.572 62.772C205.834 63.5 206.081 64.2187 206.314 64.928C206.557 65.628 206.772 66.2627 206.958 66.832C206.884 66.916 206.795 66.9813 206.692 67.028C206.59 67.084 206.473 67.112 206.342 67.112C206.165 67.112 206.03 67.0747 205.936 67C205.843 66.916 205.764 66.7807 205.698 66.594L205.068 64.732ZM203.192 59.37C203.09 59.65 202.973 59.972 202.842 60.336C202.712 60.6907 202.576 61.064 202.436 61.456C202.296 61.848 202.156 62.2447 202.016 62.646C201.876 63.0473 201.746 63.43 201.624 63.794H204.774C204.634 63.374 204.49 62.954 204.34 62.534C204.191 62.1047 204.046 61.694 203.906 61.302C203.776 60.91 203.65 60.5507 203.528 60.224C203.416 59.888 203.323 59.6033 203.248 59.37H203.192ZM214.445 63.766C214.445 64.2887 214.37 64.76 214.221 65.18C214.071 65.6 213.857 65.9593 213.577 66.258C213.306 66.5567 212.975 66.7853 212.583 66.944C212.191 67.1027 211.752 67.182 211.267 67.182C210.781 67.182 210.343 67.1027 209.951 66.944C209.559 66.7853 209.223 66.5567 208.943 66.258C208.663 65.9593 208.448 65.6 208.299 65.18C208.149 64.76 208.075 64.2887 208.075 63.766C208.075 63.2433 208.149 62.772 208.299 62.352C208.457 61.932 208.677 61.5727 208.957 61.274C209.237 60.9753 209.573 60.7467 209.965 60.588C210.357 60.4293 210.791 60.35 211.267 60.35C211.743 60.35 212.177 60.4293 212.569 60.588C212.961 60.7467 213.292 60.9753 213.563 61.274C213.843 61.5727 214.057 61.932 214.207 62.352C214.365 62.772 214.445 63.2433 214.445 63.766ZM211.267 61.274C210.632 61.274 210.133 61.4933 209.769 61.932C209.405 62.3707 209.223 62.982 209.223 63.766C209.223 64.5593 209.4 65.1753 209.755 65.614C210.119 66.0433 210.623 66.258 211.267 66.258C211.911 66.258 212.41 66.0387 212.765 65.6C213.119 65.1613 213.297 64.55 213.297 63.766C213.297 62.982 213.115 62.3707 212.751 61.932C212.396 61.4933 211.901 61.274 211.267 61.274ZM218.389 67.182C217.736 67.182 217.204 67.0373 216.793 66.748C216.392 66.4587 216.191 65.978 216.191 65.306V58.656C216.238 58.6373 216.308 58.6187 216.401 58.6C216.504 58.572 216.611 58.558 216.723 58.558C217.115 58.558 217.311 58.726 217.311 59.062V60.672H219.607C219.635 60.7187 219.663 60.784 219.691 60.868C219.719 60.9427 219.733 61.0267 219.733 61.12C219.733 61.4373 219.593 61.596 219.313 61.596H217.311V65.236C217.311 65.6093 217.414 65.8753 217.619 66.034C217.834 66.1833 218.132 66.258 218.515 66.258C218.674 66.258 218.851 66.23 219.047 66.174C219.243 66.118 219.406 66.0527 219.537 65.978C219.593 66.034 219.644 66.104 219.691 66.188C219.738 66.272 219.761 66.37 219.761 66.482C219.761 66.6873 219.64 66.8553 219.397 66.986C219.154 67.1167 218.818 67.182 218.389 67.182ZM221.979 64.424C222.231 65.6467 223.034 66.258 224.387 66.258C224.779 66.258 225.134 66.1927 225.451 66.062C225.768 65.9313 226.02 65.7913 226.207 65.642C226.431 65.7727 226.543 65.95 226.543 66.174C226.543 66.3047 226.482 66.4307 226.361 66.552C226.249 66.6733 226.09 66.7807 225.885 66.874C225.689 66.9673 225.456 67.042 225.185 67.098C224.924 67.154 224.639 67.182 224.331 67.182C223.248 67.182 222.39 66.888 221.755 66.3C221.13 65.712 220.817 64.8533 220.817 63.724C220.817 63.192 220.892 62.7207 221.041 62.31C221.2 61.89 221.414 61.5353 221.685 61.246C221.965 60.9567 222.296 60.7373 222.679 60.588C223.062 60.4293 223.477 60.35 223.925 60.35C224.345 60.35 224.732 60.42 225.087 60.56C225.442 60.7 225.745 60.9007 225.997 61.162C226.258 61.414 226.459 61.7173 226.599 62.072C226.748 62.4173 226.823 62.8 226.823 63.22C226.823 63.4253 226.776 63.5747 226.683 63.668C226.59 63.752 226.459 63.8033 226.291 63.822L221.979 64.424ZM223.911 61.26C223.342 61.26 222.87 61.4607 222.497 61.862C222.124 62.254 221.928 62.8187 221.909 63.556L225.759 63.024C225.712 62.5107 225.53 62.0907 225.213 61.764C224.905 61.428 224.471 61.26 223.911 61.26ZM230.751 66.272C231.143 66.272 231.465 66.2347 231.717 66.16C231.978 66.076 232.165 65.9967 232.277 65.922V63.892L230.541 64.074C230.055 64.1207 229.696 64.2327 229.463 64.41C229.229 64.578 229.113 64.83 229.113 65.166C229.113 65.5207 229.248 65.796 229.519 65.992C229.789 66.1787 230.2 66.272 230.751 66.272ZM230.737 60.35C231.549 60.35 232.193 60.532 232.669 60.896C233.145 61.26 233.383 61.834 233.383 62.618V65.936C233.383 66.1413 233.341 66.3 233.257 66.412C233.182 66.5147 233.065 66.6127 232.907 66.706C232.683 66.8367 232.384 66.9487 232.011 67.042C231.647 67.1447 231.227 67.196 230.751 67.196C229.873 67.196 229.192 67.0233 228.707 66.678C228.231 66.3327 227.993 65.8333 227.993 65.18C227.993 64.564 228.193 64.102 228.595 63.794C228.996 63.4767 229.561 63.2807 230.289 63.206L232.277 63.01V62.618C232.277 62.1513 232.137 61.8107 231.857 61.596C231.577 61.3813 231.199 61.274 230.723 61.274C230.331 61.274 229.962 61.33 229.617 61.442C229.271 61.554 228.963 61.68 228.693 61.82C228.618 61.7547 228.548 61.68 228.483 61.596C228.427 61.512 228.399 61.4187 228.399 61.316C228.399 61.1853 228.431 61.078 228.497 60.994C228.562 60.91 228.665 60.8307 228.805 60.756C229.057 60.6253 229.346 60.5273 229.673 60.462C229.999 60.3873 230.354 60.35 230.737 60.35ZM236.547 66.972C236.5 66.9907 236.43 67.0093 236.337 67.028C236.244 67.056 236.141 67.07 236.029 67.07C235.628 67.07 235.427 66.902 235.427 66.566V61.82C235.427 61.6053 235.464 61.4373 235.539 61.316C235.623 61.1853 235.758 61.0593 235.945 60.938C236.188 60.7793 236.514 60.644 236.925 60.532C237.345 60.4107 237.816 60.35 238.339 60.35C239.086 60.35 239.459 60.5367 239.459 60.91C239.459 61.0033 239.445 61.092 239.417 61.176C239.389 61.2507 239.352 61.316 239.305 61.372C239.212 61.3533 239.09 61.3347 238.941 61.316C238.792 61.2973 238.642 61.288 238.493 61.288C238.064 61.288 237.686 61.3347 237.359 61.428C237.032 61.512 236.762 61.6147 236.547 61.736V66.972ZM246.642 63.766C246.642 64.2887 246.567 64.76 246.418 65.18C246.269 65.6 246.054 65.9593 245.774 66.258C245.503 66.5567 245.172 66.7853 244.78 66.944C244.388 67.1027 243.949 67.182 243.464 67.182C242.979 67.182 242.54 67.1027 242.148 66.944C241.756 66.7853 241.42 66.5567 241.14 66.258C240.86 65.9593 240.645 65.6 240.496 65.18C240.347 64.76 240.272 64.2887 240.272 63.766C240.272 63.2433 240.347 62.772 240.496 62.352C240.655 61.932 240.874 61.5727 241.154 61.274C241.434 60.9753 241.77 60.7467 242.162 60.588C242.554 60.4293 242.988 60.35 243.464 60.35C243.94 60.35 244.374 60.4293 244.766 60.588C245.158 60.7467 245.489 60.9753 245.76 61.274C246.04 61.5727 246.255 61.932 246.404 62.352C246.563 62.772 246.642 63.2433 246.642 63.766ZM243.464 61.274C242.829 61.274 242.33 61.4933 241.966 61.932C241.602 62.3707 241.42 62.982 241.42 63.766C241.42 64.5593 241.597 65.1753 241.952 65.614C242.316 66.0433 242.82 66.258 243.464 66.258C244.108 66.258 244.607 66.0387 244.962 65.6C245.317 65.1613 245.494 64.55 245.494 63.766C245.494 62.982 245.312 62.3707 244.948 61.932C244.593 61.4933 244.099 61.274 243.464 61.274ZM250.712 66.272C251.104 66.272 251.426 66.2347 251.678 66.16C251.939 66.076 252.126 65.9967 252.238 65.922V63.892L250.502 64.074C250.016 64.1207 249.657 64.2327 249.424 64.41C249.19 64.578 249.074 64.83 249.074 65.166C249.074 65.5207 249.209 65.796 249.48 65.992C249.75 66.1787 250.161 66.272 250.712 66.272ZM250.698 60.35C251.51 60.35 252.154 60.532 252.63 60.896C253.106 61.26 253.344 61.834 253.344 62.618V65.936C253.344 66.1413 253.302 66.3 253.218 66.412C253.143 66.5147 253.026 66.6127 252.868 66.706C252.644 66.8367 252.345 66.9487 251.972 67.042C251.608 67.1447 251.188 67.196 250.712 67.196C249.834 67.196 249.153 67.0233 248.668 66.678C248.192 66.3327 247.954 65.8333 247.954 65.18C247.954 64.564 248.154 64.102 248.556 63.794C248.957 63.4767 249.522 63.2807 250.25 63.206L252.238 63.01V62.618C252.238 62.1513 252.098 61.8107 251.818 61.596C251.538 61.3813 251.16 61.274 250.684 61.274C250.292 61.274 249.923 61.33 249.578 61.442C249.232 61.554 248.924 61.68 248.654 61.82C248.579 61.7547 248.509 61.68 248.444 61.596C248.388 61.512 248.36 61.4187 248.36 61.316C248.36 61.1853 248.392 61.078 248.458 60.994C248.523 60.91 248.626 60.8307 248.766 60.756C249.018 60.6253 249.307 60.5273 249.634 60.462C249.96 60.3873 250.315 60.35 250.698 60.35Z" fill="black"/>
<path d="M7.56 38.67C8.62 38.67 9.37 38.49 9.81 38.13C10.27 37.75 10.5 37.3 10.5 36.78C10.5 36.3 10.32 35.92 9.96 35.64C9.62 35.34 9.1 35.08 8.4 34.86L6.87 34.38C6.03 34.12 5.27 33.84 4.59 33.54C3.91 33.22 3.33 32.85 2.85 32.43C2.37 31.99 1.99 31.48 1.71 30.9C1.45 30.3 1.32 29.58 1.32 28.74C1.32 27.06 1.95 25.73 3.21 24.75C4.49 23.77 6.26 23.28 8.52 23.28C9.38 23.28 10.17 23.34 10.89 23.46C11.63 23.58 12.26 23.77 12.78 24.03C13.3 24.27 13.71 24.57 14.01 24.93C14.31 25.29 14.46 25.71 14.46 26.19C14.46 26.65 14.34 27.06 14.1 27.42C13.88 27.76 13.62 28.05 13.32 28.29C12.86 27.97 12.25 27.7 11.49 27.48C10.73 27.26 9.9 27.15 9 27.15C8.04 27.15 7.33 27.3 6.87 27.6C6.41 27.9 6.18 28.28 6.18 28.74C6.18 29.14 6.33 29.45 6.63 29.67C6.93 29.87 7.4 30.08 8.04 30.3L9.66 30.84C10.6 31.16 11.42 31.51 12.12 31.89C12.84 32.25 13.44 32.67 13.92 33.15C14.4 33.61 14.76 34.15 15 34.77C15.24 35.37 15.36 36.06 15.36 36.84C15.36 37.68 15.19 38.45 14.85 39.15C14.53 39.83 14.04 40.42 13.38 40.92C12.74 41.42 11.94 41.81 10.98 42.09C10.04 42.37 8.95 42.51 7.71 42.51C6.79 42.51 5.94 42.43 5.16 42.27C4.38 42.13 3.7 41.92 3.12 41.64C2.56 41.36 2.11 41.02 1.77 40.62C1.45 40.2 1.29 39.73 1.29 39.21C1.29 38.67 1.44 38.22 1.74 37.86C2.06 37.5 2.41 37.21 2.79 36.99C3.33 37.43 4 37.82 4.8 38.16C5.62 38.5 6.54 38.67 7.56 38.67ZM25.1991 42.45C24.6791 42.45 24.1991 42.4 23.7591 42.3C23.3191 42.22 22.9191 42.11 22.5591 41.97V47.34C22.3591 47.4 22.0791 47.46 21.7191 47.52C21.3591 47.58 20.9591 47.61 20.5191 47.61C19.6191 47.61 18.9691 47.46 18.5691 47.16C18.1691 46.86 17.9691 46.29 17.9691 45.45V30.6C17.9691 30.08 18.0791 29.66 18.2991 29.34C18.5191 29 18.8291 28.7 19.2291 28.44C19.8291 28.06 20.5991 27.75 21.5391 27.51C22.4791 27.25 23.5191 27.12 24.6591 27.12C25.8191 27.12 26.8791 27.27 27.8391 27.57C28.8191 27.85 29.6591 28.3 30.3591 28.92C31.0591 29.54 31.5991 30.33 31.9791 31.29C32.3791 32.25 32.5791 33.39 32.5791 34.71C32.5791 35.97 32.3891 37.09 32.0091 38.07C31.6491 39.03 31.1391 39.84 30.4791 40.5C29.8191 41.14 29.0391 41.63 28.1391 41.97C27.2391 42.29 26.2591 42.45 25.1991 42.45ZM24.5091 38.82C25.5891 38.82 26.4191 38.48 26.9991 37.8C27.5991 37.12 27.8991 36.09 27.8991 34.71C27.8991 33.29 27.6091 32.27 27.0291 31.65C26.4691 31.03 25.6791 30.72 24.6591 30.72C24.1991 30.72 23.7991 30.78 23.4591 30.9C23.1191 31 22.8091 31.12 22.5291 31.26V38.31C22.8091 38.47 23.1091 38.6 23.4291 38.7C23.7491 38.78 24.1091 38.82 24.5091 38.82ZM39.9028 41.97C39.7028 42.03 39.4228 42.08 39.0628 42.12C38.7028 42.18 38.3028 42.21 37.8628 42.21C36.9628 42.21 36.3128 42.07 35.9128 41.79C35.5128 41.49 35.3128 40.92 35.3128 40.08V30.93C35.3128 30.37 35.4528 29.89 35.7328 29.49C36.0128 29.09 36.4028 28.74 36.9028 28.44C37.5628 28.04 38.3528 27.73 39.2728 27.51C40.2128 27.27 41.1928 27.15 42.2128 27.15C44.2928 27.15 45.3328 27.85 45.3328 29.25C45.3328 29.59 45.2828 29.9 45.1828 30.18C45.0828 30.46 44.9728 30.7 44.8528 30.9C44.3928 30.8 43.8328 30.75 43.1728 30.75C42.5928 30.75 42.0128 30.82 41.4328 30.96C40.8528 31.1 40.3428 31.29 39.9028 31.53V41.97ZM50.873 36.69C51.153 37.53 51.643 38.13 52.343 38.49C53.043 38.83 53.853 39 54.773 39C55.613 39 56.403 38.89 57.143 38.67C57.883 38.43 58.483 38.17 58.943 37.89C59.243 38.09 59.493 38.35 59.693 38.67C59.893 38.99 59.993 39.34 59.993 39.72C59.993 40.18 59.853 40.58 59.573 40.92C59.293 41.26 58.903 41.55 58.403 41.79C57.923 42.01 57.343 42.17 56.663 42.27C56.003 42.39 55.273 42.45 54.473 42.45C53.293 42.45 52.203 42.29 51.203 41.97C50.203 41.63 49.343 41.14 48.623 40.5C47.903 39.84 47.333 39.02 46.913 38.04C46.513 37.06 46.313 35.91 46.313 34.59C46.313 33.31 46.513 32.2 46.913 31.26C47.333 30.32 47.883 29.54 48.563 28.92C49.263 28.3 50.053 27.85 50.933 27.57C51.833 27.27 52.753 27.12 53.693 27.12C54.713 27.12 55.643 27.28 56.483 27.6C57.343 27.9 58.073 28.33 58.673 28.89C59.293 29.45 59.773 30.12 60.113 30.9C60.453 31.68 60.623 32.53 60.623 33.45C60.623 34.09 60.453 34.57 60.113 34.89C59.773 35.21 59.293 35.42 58.673 35.52L50.873 36.69ZM53.723 30.51C52.863 30.51 52.143 30.78 51.563 31.32C51.003 31.84 50.673 32.6 50.573 33.6L56.303 32.67C56.263 32.15 56.033 31.66 55.613 31.2C55.193 30.74 54.563 30.51 53.723 30.51ZM69.262 39.09C69.702 39.09 70.132 39.05 70.552 38.97C70.992 38.87 71.322 38.75 71.542 38.61V35.85L69.082 36.06C68.442 36.12 67.922 36.27 67.522 36.51C67.142 36.73 66.952 37.07 66.952 37.53C66.952 38.01 67.132 38.39 67.492 38.67C67.852 38.95 68.442 39.09 69.262 39.09ZM69.082 27.12C70.122 27.12 71.062 27.23 71.902 27.45C72.762 27.65 73.492 27.97 74.092 28.41C74.692 28.85 75.152 29.41 75.472 30.09C75.812 30.77 75.982 31.57 75.982 32.49V39.27C75.982 39.79 75.842 40.21 75.562 40.53C75.302 40.83 74.982 41.09 74.602 41.31C73.982 41.69 73.222 41.98 72.322 42.18C71.422 42.38 70.402 42.48 69.262 42.48C67.202 42.48 65.562 42.09 64.342 41.31C63.122 40.51 62.512 39.3 62.512 37.68C62.512 36.3 62.922 35.25 63.742 34.53C64.562 33.81 65.822 33.36 67.522 33.18L71.512 32.76V32.43C71.512 31.79 71.252 31.32 70.732 31.02C70.212 30.72 69.462 30.57 68.482 30.57C67.722 30.57 66.972 30.66 66.232 30.84C65.512 31.02 64.862 31.23 64.282 31.47C64.042 31.31 63.832 31.07 63.652 30.75C63.492 30.41 63.412 30.05 63.412 29.67C63.412 28.79 63.872 28.16 64.792 27.78C65.372 27.56 66.042 27.4 66.802 27.3C67.582 27.18 68.342 27.12 69.082 27.12ZM86.2167 27.12C86.6767 27.12 87.1067 27.16 87.5067 27.24C87.9267 27.3 88.3067 27.39 88.6467 27.51V22.47C88.8667 22.41 89.1567 22.35 89.5167 22.29C89.8767 22.23 90.2767 22.2 90.7167 22.2C91.6167 22.2 92.2567 22.35 92.6367 22.65C93.0367 22.95 93.2367 23.52 93.2367 24.36V38.97C93.2367 39.45 93.1367 39.86 92.9367 40.2C92.7367 40.52 92.4167 40.82 91.9767 41.1C91.4167 41.44 90.6967 41.75 89.8167 42.03C88.9367 42.31 87.9267 42.45 86.7867 42.45C84.2667 42.45 82.2767 41.82 80.8167 40.56C79.3767 39.28 78.6567 37.37 78.6567 34.83C78.6567 33.51 78.8467 32.37 79.2267 31.41C79.6267 30.45 80.1667 29.65 80.8467 29.01C81.5267 28.37 82.3267 27.9 83.2467 27.6C84.1667 27.28 85.1567 27.12 86.2167 27.12ZM88.6767 31.17C88.4167 31.05 88.1267 30.95 87.8067 30.87C87.5067 30.77 87.1867 30.72 86.8467 30.72C85.7667 30.72 84.9067 31.05 84.2667 31.71C83.6267 32.37 83.3067 33.42 83.3067 34.86C83.3067 36.24 83.6067 37.25 84.2067 37.89C84.8267 38.51 85.6767 38.82 86.7567 38.82C87.1767 38.82 87.5467 38.78 87.8667 38.7C88.2067 38.6 88.4767 38.49 88.6767 38.37V31.17ZM117.666 25.68C117.666 25.92 117.576 26.26 117.396 26.7C117.236 27.14 116.946 27.75 116.526 28.53C116.106 29.31 115.536 30.3 114.816 31.5C114.116 32.7 113.226 34.17 112.146 35.91V41.97C111.926 42.03 111.616 42.08 111.216 42.12C110.836 42.18 110.436 42.21 110.016 42.21C109.076 42.21 108.426 42.05 108.066 41.73C107.706 41.41 107.526 40.85 107.526 40.05V35.88C107.006 35.12 106.446 34.27 105.846 33.33C105.246 32.37 104.656 31.41 104.076 30.45C103.496 29.47 102.956 28.51 102.456 27.57C101.956 26.63 101.556 25.79 101.256 25.05C101.476 24.71 101.786 24.4 102.186 24.12C102.606 23.84 103.116 23.7 103.716 23.7C104.416 23.7 104.986 23.85 105.426 24.15C105.866 24.43 106.286 24.97 106.686 25.77C106.726 25.83 106.826 26.02 106.986 26.34C107.146 26.64 107.326 27 107.526 27.42C107.746 27.82 107.976 28.26 108.216 28.74C108.456 29.22 108.676 29.67 108.876 30.09C109.096 30.49 109.286 30.84 109.446 31.14C109.606 31.44 109.706 31.62 109.746 31.68H109.896C110.216 31.02 110.506 30.39 110.766 29.79C111.046 29.19 111.316 28.6 111.576 28.02C111.836 27.42 112.096 26.82 112.356 26.22C112.636 25.6 112.926 24.93 113.226 24.21C113.546 24.05 113.896 23.93 114.276 23.85C114.676 23.75 115.046 23.7 115.386 23.7C116.026 23.7 116.566 23.87 117.006 24.21C117.446 24.55 117.666 25.04 117.666 25.68ZM133.069 34.77C133.069 35.95 132.889 37.02 132.529 37.98C132.169 38.92 131.649 39.72 130.969 40.38C130.309 41.04 129.509 41.55 128.569 41.91C127.629 42.27 126.579 42.45 125.419 42.45C124.259 42.45 123.199 42.28 122.239 41.94C121.299 41.58 120.489 41.07 119.809 40.41C119.149 39.75 118.639 38.95 118.279 38.01C117.919 37.05 117.739 35.97 117.739 34.77C117.739 33.61 117.919 32.56 118.279 31.62C118.659 30.66 119.179 29.85 119.839 29.19C120.519 28.53 121.329 28.02 122.269 27.66C123.229 27.3 124.279 27.12 125.419 27.12C126.559 27.12 127.599 27.3 128.539 27.66C129.479 28.02 130.279 28.54 130.939 29.22C131.619 29.88 132.139 30.68 132.499 31.62C132.879 32.56 133.069 33.61 133.069 34.77ZM125.419 30.72C124.479 30.72 123.749 31.07 123.229 31.77C122.709 32.47 122.449 33.47 122.449 34.77C122.449 36.11 122.699 37.13 123.199 37.83C123.719 38.51 124.459 38.85 125.419 38.85C126.379 38.85 127.109 38.5 127.609 37.8C128.129 37.1 128.389 36.09 128.389 34.77C128.389 33.49 128.129 32.5 127.609 31.8C127.089 31.08 126.359 30.72 125.419 30.72ZM149.721 39C149.721 39.94 149.311 40.66 148.491 41.16C147.851 41.56 147.061 41.87 146.121 42.09C145.181 42.33 144.141 42.45 143.001 42.45C141.921 42.45 140.941 42.33 140.061 42.09C139.181 41.87 138.421 41.51 137.781 41.01C137.161 40.51 136.671 39.88 136.311 39.12C135.971 38.36 135.801 37.44 135.801 36.36V27.63C136.021 27.57 136.311 27.51 136.671 27.45C137.031 27.39 137.431 27.36 137.871 27.36C138.771 27.36 139.411 27.51 139.791 27.81C140.191 28.11 140.391 28.68 140.391 29.52V36.33C140.391 37.23 140.621 37.88 141.081 38.28C141.541 38.66 142.191 38.85 143.031 38.85C143.551 38.85 143.981 38.81 144.321 38.73C144.681 38.63 144.951 38.53 145.131 38.43V27.63C145.331 27.57 145.611 27.51 145.971 27.45C146.331 27.39 146.731 27.36 147.171 27.36C148.071 27.36 148.721 27.51 149.121 27.81C149.521 28.11 149.721 28.68 149.721 29.52V39ZM157.676 41.97C157.476 42.03 157.196 42.08 156.836 42.12C156.476 42.18 156.076 42.21 155.636 42.21C154.736 42.21 154.086 42.07 153.686 41.79C153.286 41.49 153.086 40.92 153.086 40.08V30.93C153.086 30.37 153.226 29.89 153.506 29.49C153.786 29.09 154.176 28.74 154.676 28.44C155.336 28.04 156.126 27.73 157.046 27.51C157.986 27.27 158.966 27.15 159.986 27.15C162.066 27.15 163.106 27.85 163.106 29.25C163.106 29.59 163.056 29.9 162.956 30.18C162.856 30.46 162.746 30.7 162.626 30.9C162.166 30.8 161.606 30.75 160.946 30.75C160.366 30.75 159.786 30.82 159.206 30.96C158.626 31.1 158.116 31.29 157.676 31.53V41.97ZM174.16 42.06C173.4 42.06 172.79 41.84 172.33 41.4C171.89 40.94 171.67 40.33 171.67 39.57V23.76C171.89 23.72 172.2 23.67 172.6 23.61C173.02 23.55 173.43 23.52 173.83 23.52C174.73 23.52 175.38 23.67 175.78 23.97C176.18 24.27 176.38 24.86 176.38 25.74V38.25H183.58C183.7 38.45 183.81 38.71 183.91 39.03C184.03 39.35 184.09 39.7 184.09 40.08C184.09 40.74 183.94 41.24 183.64 41.58C183.36 41.9 182.97 42.06 182.47 42.06H174.16ZM190.18 36.69C190.46 37.53 190.95 38.13 191.65 38.49C192.35 38.83 193.16 39 194.08 39C194.92 39 195.71 38.89 196.45 38.67C197.19 38.43 197.79 38.17 198.25 37.89C198.55 38.09 198.8 38.35 199 38.67C199.2 38.99 199.3 39.34 199.3 39.72C199.3 40.18 199.16 40.58 198.88 40.92C198.6 41.26 198.21 41.55 197.71 41.79C197.23 42.01 196.65 42.17 195.97 42.27C195.31 42.39 194.58 42.45 193.78 42.45C192.6 42.45 191.51 42.29 190.51 41.97C189.51 41.63 188.65 41.14 187.93 40.5C187.21 39.84 186.64 39.02 186.22 38.04C185.82 37.06 185.62 35.91 185.62 34.59C185.62 33.31 185.82 32.2 186.22 31.26C186.64 30.32 187.19 29.54 187.87 28.92C188.57 28.3 189.36 27.85 190.24 27.57C191.14 27.27 192.06 27.12 193 27.12C194.02 27.12 194.95 27.28 195.79 27.6C196.65 27.9 197.38 28.33 197.98 28.89C198.6 29.45 199.08 30.12 199.42 30.9C199.76 31.68 199.93 32.53 199.93 33.45C199.93 34.09 199.76 34.57 199.42 34.89C199.08 35.21 198.6 35.42 197.98 35.52L190.18 36.69ZM193.03 30.51C192.17 30.51 191.45 30.78 190.87 31.32C190.31 31.84 189.98 32.6 189.88 33.6L195.61 32.67C195.57 32.15 195.34 31.66 194.92 31.2C194.5 30.74 193.87 30.51 193.03 30.51ZM211.629 40.83C211.229 41.01 210.779 41.16 210.279 41.28C209.779 41.38 209.209 41.43 208.569 41.43C207.669 41.43 206.809 41.31 205.989 41.07C205.189 40.81 204.489 40.4 203.889 39.84C203.289 39.28 202.809 38.55 202.449 37.65C202.089 36.75 201.909 35.65 201.909 34.35C201.909 33.17 202.089 32.13 202.449 31.23C202.809 30.33 203.319 29.58 203.979 28.98C204.659 28.36 205.459 27.9 206.379 27.6C207.319 27.28 208.359 27.12 209.499 27.12C210.619 27.12 211.639 27.27 212.559 27.57C213.499 27.85 214.229 28.16 214.749 28.5C215.129 28.76 215.429 29.06 215.649 29.4C215.869 29.72 215.979 30.13 215.979 30.63V41.94C215.979 42.98 215.789 43.88 215.409 44.64C215.029 45.4 214.499 46.02 213.819 46.5C213.159 47 212.379 47.37 211.479 47.61C210.579 47.85 209.609 47.97 208.569 47.97C207.489 47.97 206.549 47.88 205.749 47.7C204.969 47.52 204.349 47.29 203.889 47.01C203.209 46.53 202.869 45.89 202.869 45.09C202.869 44.67 202.959 44.28 203.139 43.92C203.319 43.58 203.519 43.33 203.739 43.17C204.299 43.49 204.939 43.76 205.659 43.98C206.399 44.22 207.179 44.34 207.999 44.34C209.119 44.34 209.999 44.14 210.639 43.74C211.299 43.36 211.629 42.72 211.629 41.82V40.83ZM209.379 37.98C209.859 37.98 210.269 37.92 210.609 37.8C210.969 37.68 211.289 37.52 211.569 37.32V31.17C211.329 31.07 211.059 30.97 210.759 30.87C210.479 30.77 210.119 30.72 209.679 30.72C208.719 30.72 207.939 31.02 207.339 31.62C206.759 32.2 206.469 33.12 206.469 34.38C206.469 35.06 206.539 35.63 206.679 36.09C206.839 36.55 207.049 36.92 207.309 37.2C207.569 37.48 207.869 37.68 208.209 37.8C208.569 37.92 208.959 37.98 209.379 37.98ZM231.176 37.77C231.176 39.25 230.626 40.41 229.526 41.25C228.426 42.07 226.806 42.48 224.666 42.48C223.826 42.48 223.056 42.42 222.356 42.3C221.676 42.18 221.086 42 220.586 41.76C220.086 41.52 219.696 41.22 219.416 40.86C219.136 40.5 218.996 40.08 218.996 39.6C218.996 39.16 219.086 38.79 219.266 38.49C219.446 38.17 219.676 37.91 219.956 37.71C220.536 38.05 221.196 38.35 221.936 38.61C222.676 38.87 223.536 39 224.516 39C225.936 39 226.646 38.6 226.646 37.8C226.646 37.46 226.516 37.2 226.256 37.02C226.016 36.84 225.596 36.68 224.996 36.54L223.796 36.27C222.156 35.93 220.936 35.41 220.136 34.71C219.336 33.99 218.936 32.99 218.936 31.71C218.936 30.29 219.506 29.17 220.646 28.35C221.806 27.51 223.356 27.09 225.296 27.09C226.016 27.09 226.696 27.15 227.336 27.27C227.976 27.37 228.526 27.53 228.986 27.75C229.446 27.97 229.806 28.25 230.066 28.59C230.346 28.91 230.486 29.29 230.486 29.73C230.486 30.13 230.406 30.49 230.246 30.81C230.086 31.11 229.876 31.36 229.616 31.56C229.456 31.46 229.216 31.35 228.896 31.23C228.596 31.11 228.266 31 227.906 30.9C227.546 30.8 227.166 30.72 226.766 30.66C226.366 30.6 225.996 30.57 225.656 30.57C224.956 30.57 224.406 30.67 224.006 30.87C223.626 31.05 223.436 31.33 223.436 31.71C223.436 31.99 223.546 32.21 223.766 32.37C223.986 32.53 224.386 32.68 224.966 32.82L226.106 33.09C227.926 33.49 229.226 34.07 230.006 34.83C230.786 35.59 231.176 36.57 231.176 37.77Z" fill="black"/>
<path d="M272.333 31.1258C272.005 30.8718 271.534 30.9328 271.28 31.2608C271.244 31.3078 271.014 31.6178 270.715 32.1548C269.743 32.1048 267.587 32.3078 263.969 34.2198C254.029 40.7838 244.841 40.8768 244.749 40.8768C244.335 40.8768 244 41.2138 244 41.6268C244.001 42.0408 244.336 42.3768 244.75 42.3768C245.142 42.3768 254.458 42.2978 264.731 35.5088C267.345 34.1298 269.066 33.7558 270.01 33.6708C269.144 35.8848 268.369 39.5488 269.666 44.4028C270.196 46.3858 271.537 49.5948 272.956 52.9918C275.054 58.0128 277.665 64.2628 277.353 66.1748C277.232 66.9218 276.37 67.8728 275.677 68.6378C275.321 69.0308 274.985 69.4028 274.726 69.7568C273.039 72.0678 273.037 74.2378 274.719 75.8668C275.44 76.5648 276.359 76.8738 277.246 77.1738C278.085 77.4568 278.878 77.7248 279.303 78.2858C279.595 78.6718 280.001 79.3978 280.473 80.2378C281.965 82.9018 283.823 86.2178 286.085 86.6628C286.686 86.7808 287.281 86.8368 287.856 86.8368C290.169 86.8368 292.126 85.9268 292.573 84.4928C293.025 83.0438 291.628 82.4228 290.606 81.9698C289.311 81.3948 288.381 80.9018 288.221 79.7918C288.059 78.6728 288.035 77.7028 288.014 76.7648C287.978 75.2618 287.941 73.7078 287.338 71.5988C287.094 70.7408 286.818 69.8888 286.538 69.0198C285.735 66.5328 284.905 63.9618 284.608 60.7148C284.501 59.5358 284.401 56.6498 284.285 53.3078C284.138 49.0318 283.959 43.8908 283.695 40.2708C285.999 42.5298 287.856 44.5498 288.227 45.7248C288.392 46.2488 287.982 47.1618 287.652 47.8948C287.488 48.2578 287.337 48.5998 287.238 48.8988C286.909 49.8958 286.606 51.2068 287.188 52.5038C287.743 53.7378 288.876 54.5618 290.299 54.7628C290.956 54.8558 291.627 54.8438 292.276 54.8338C293.422 54.8148 294.501 54.7968 295.336 55.3408C296.42 56.0468 297.873 58.0678 298.935 59.5428C299.603 60.4718 300.131 61.2068 300.522 61.5818C301.85 62.8588 304.758 63.6078 306.812 63.6078C306.889 63.6078 306.964 63.6068 307.039 63.6048C308.186 63.5728 309.004 63.3018 309.47 62.7998C309.862 62.3778 310.042 61.8638 309.991 61.3138C309.849 59.7608 307.839 58.2658 306.508 57.2758C306.2 57.0468 305.944 56.8588 305.793 56.7228C304.445 55.5118 303.755 53.6898 303.087 51.9288C302.823 51.2338 302.551 50.5148 302.24 49.8368C301.407 48.0188 300.112 46.4548 298.859 44.9418C298.622 44.6548 298.386 44.3698 298.155 44.0858C296.988 42.6468 295.981 41.0258 295.007 39.4588C294.382 38.4538 293.736 37.4148 293.047 36.4198C289.804 31.7338 281.298 15.0828 280.23 11.3258C279.081 7.28378 275.643 2.15178 273.017 0.556778C270.417 -1.01722 265.205 0.989779 258.603 3.53578L257.547 3.94178C250.871 6.50978 244.791 9.62678 244.731 9.65778C244.363 9.84678 244.217 10.2998 244.407 10.6678C244.596 11.0358 245.05 11.1818 245.417 10.9918C245.478 10.9608 251.485 7.88078 258.087 5.34178L259.144 4.93478C264.867 2.72778 270.275 0.643779 272.239 1.83878C274.56 3.24778 277.742 8.05678 278.788 11.7348C279.963 15.8648 288.785 32.8938 291.816 37.2718C292.483 38.2368 293.12 39.2598 293.735 40.2498C294.733 41.8558 295.766 43.5178 296.993 45.0298C297.226 45.3178 297.466 45.6068 297.706 45.8978C298.896 47.3358 300.128 48.8228 300.879 50.4608C301.168 51.0928 301.42 51.7568 301.687 52.4598C302.418 54.3888 303.174 56.3828 304.791 57.8378C304.966 57.9948 305.26 58.2148 305.615 58.4798C306.524 59.1568 308.419 60.5648 308.5 61.4508C308.509 61.5548 308.491 61.6508 308.372 61.7798C308.345 61.8098 308.067 62.0758 306.999 62.1058C305.104 62.1458 302.494 61.3948 301.563 60.5008C301.271 60.2198 300.729 59.4658 300.155 58.6678C298.962 57.0078 297.476 54.9428 296.157 54.0848C294.937 53.2908 293.509 53.3148 292.254 53.3348C291.637 53.3448 291.053 53.3538 290.514 53.2778C289.598 53.1478 288.905 52.6548 288.561 51.8898C288.271 51.2448 288.303 50.4678 288.665 49.3688C288.75 49.1128 288.883 48.8208 289.022 48.5108C289.458 47.5448 289.999 46.3438 289.661 45.2738C288.993 43.1538 285.364 39.7358 281.163 35.7788C277.758 32.5708 274.236 29.2548 272.017 26.3788C270.088 23.8788 269.494 21.5978 269.454 19.7878C269.455 19.7768 269.462 19.7678 269.462 19.7558C269.463 19.7378 269.455 19.7228 269.455 19.7048C269.431 17.8038 270.007 16.4408 270.278 15.9108C270.525 15.8558 270.774 15.8018 271.032 15.7578C271.44 15.6888 271.715 15.3008 271.645 14.8928C271.575 14.4848 271.189 14.2128 270.78 14.2798C265.751 15.1368 262.664 17.8678 261.793 18.7318C250.123 18.6348 244.787 20.2288 244.529 20.3088C244.133 20.4318 243.913 20.8508 244.036 21.2468C244.136 21.5688 244.432 21.7748 244.753 21.7748C244.825 21.7748 244.9 21.7638 244.974 21.7408C245.036 21.7228 250.425 20.1278 262.053 20.2378C262.068 20.2388 262.082 20.2458 262.097 20.2458C262.109 20.2458 262.12 20.2388 262.132 20.2388C263.937 20.2568 265.887 20.3168 267.995 20.4288C268.148 22.4018 268.873 24.7618 270.829 27.2958C273.122 30.2658 276.686 33.6238 280.135 36.8718C280.779 37.4788 281.426 38.0888 282.06 38.6918C282.404 42.1828 282.618 48.3658 282.79 53.3608C282.906 56.7258 283.007 59.6318 283.118 60.8528C283.431 64.2658 284.286 66.9168 285.114 69.4818C285.389 70.3348 285.659 71.1698 285.9 72.0118C286.45 73.9358 286.482 75.3278 286.517 76.8008C286.54 77.7828 286.565 78.7988 286.74 80.0068C287.031 82.0228 288.748 82.7838 290.001 83.3408C290.405 83.5198 291.081 83.8198 291.145 84.0458C290.868 84.9348 288.679 85.6438 286.378 85.1908C284.797 84.8798 282.911 81.5148 281.785 79.5048C281.287 78.6158 280.856 77.8488 280.503 77.3798C279.8 76.4508 278.699 76.0798 277.73 75.7518C276.966 75.4938 276.245 75.2508 275.766 74.7878C275.353 74.3878 274.095 73.1698 275.941 70.6408C276.154 70.3498 276.464 70.0068 276.793 69.6438C277.661 68.6848 278.646 67.5988 278.838 66.4148C279.218 64.0798 276.74 58.1488 274.344 52.4128C272.945 49.0628 271.623 45.8998 271.119 44.0138C269.15 36.6468 272.437 32.2178 272.471 32.1738C272.721 31.8478 272.66 31.3778 272.333 31.1258ZM268.458 16.4248C268.242 17.0828 268.043 17.9278 267.977 18.9278C266.602 18.8548 265.297 18.8038 264.052 18.7718C265.033 18.0278 266.515 17.0998 268.458 16.4248Z" fill="black"/>
</svg>
